<?xml version="1.0" encoding="UTF-8" standalone="no"?>
<!DOCTYPE svg PUBLIC "-//W3C//DTD SVG 1.1//EN" "http://www.w3.org/Graphics/SVG/1.1/DTD/svg11.dtd">
<svg width="100%" height="100%" viewBox="0 0 432 176" version="1.1" xmlns="http://www.w3.org/2000/svg" xmlns:xlink="http://www.w3.org/1999/xlink" xml:space="preserve" xmlns:serif="http://www.serif.com/" style="fill-rule:evenodd;clip-rule:evenodd;stroke-linecap:round;stroke-linejoin:round;stroke-miterlimit:1.5;">
    <g transform="matrix(1,0,0,1,-1429.500652,-415.517226)">
        <g transform="matrix(1.084474,0,0,1,0,0)">
            <g transform="matrix(1.137611,0,0,1.23371,700.325328,-133.126619)">
                <g transform="matrix(0.606674,-0.128689,0.128689,0.606674,158.45294,340.291983)">
                    <g transform="matrix(1,0,0,1,-3.701909,-4.923273)">
                        <path d="M834.135,561.103C836.674,562.372 868.539,534.255 876.135,568.436C892.784,554.562 922.286,557.404 934.802,582.436C940.504,593.841 938.605,594.228 940.174,606.716C959.446,600.001 995.011,566.668 1040.611,581.196L1042.135,585.103C1048.828,570.044 1049.323,570.582 1060.802,559.103C1072.064,547.841 1073.059,548.154 1090.767,549.138C1101.727,527.408 1099.903,505.073 1090.802,477.77C1088.397,470.556 1060.715,423.354 1019.469,437.103C982.564,449.405 982.362,448.323 947.469,465.77C944.363,467.323 898.202,477.704 882.802,493.103C879.234,496.671 834.637,509.094 828.802,532.436C826.421,541.96 827.374,541.772 828.802,551.77" style="fill:rgb(154,126,174);stroke:black;stroke-width:7.45px;"/>
                    </g>
                    <g transform="matrix(1,0,0,1,-3.701909,-4.923273)">
                        <path d="M834.135,516.436C848.048,502.523 925.485,460.43 985.469,440.436C1013.094,431.228 1012.667,430.57 1041.469,425.77C1050.346,424.29 1085.648,386.745 1067.469,423.103C1066.906,424.229 1066.504,423.726 1054.918,432.581C1106.74,457.629 1105.712,530.738 1092.135,551.103C1098.337,513.896 1075.657,456.499 1047.469,447.103C1040.166,444.669 1040.423,441.919 1008.802,446.436C992.32,448.791 993.281,451.173 977.885,457.927C1004.399,473.581 1026.153,465.156 1048.135,531.103C1060.011,566.73 1041.45,584.467 1039.328,587.945C1040.247,581.672 1044.365,553.561 1022.802,510.436C1020.723,506.28 975.002,462.148 948.135,471.103C943.548,472.632 943.911,472.685 939.069,474.036C941.691,476.386 948.486,482.473 962.802,511.103C964.383,514.265 978.333,581.545 940.361,605.203C965.049,520.329 939.028,473.916 899.469,487.103C896.281,488.166 909.212,490.131 899.469,529.103C895.606,544.552 877.709,562.19 875.26,564.603C882.007,543.451 879.715,543.031 886.802,521.77C895.511,495.643 853.116,506.476 846.135,520.436C844.978,522.752 835.609,530.472 833.469,519.77" style="fill:rgb(70,61,112);stroke:black;stroke-width:7.45px;"/>
                    </g>
                </g>
                <g transform="matrix(-0.607493,-0.12477,-0.12477,0.607493,1276.395874,336.128902)">
                    <g transform="matrix(1,0,0,1,-3.701909,-4.923273)">
                        <path d="M834.135,561.103C836.674,562.372 868.539,534.255 876.135,568.436C892.784,554.562 922.286,557.404 934.802,582.436C940.504,593.841 938.605,594.228 940.174,606.716C959.446,600.001 995.011,566.668 1040.611,581.196L1042.135,585.103C1048.828,570.044 1049.323,570.582 1060.802,559.103C1072.064,547.841 1073.059,548.154 1090.767,549.138C1101.727,527.408 1099.903,505.073 1090.802,477.77C1088.397,470.556 1060.715,423.354 1019.469,437.103C982.564,449.405 982.362,448.323 947.469,465.77C944.363,467.323 898.202,477.704 882.802,493.103C879.234,496.671 834.637,509.094 828.802,532.436C826.421,541.96 827.374,541.772 828.802,551.77" style="fill:rgb(154,126,174);stroke:black;stroke-width:7.45px;"/>
                    </g>
                    <g transform="matrix(1,0,0,1,-3.701909,-4.923273)">
                        <path d="M834.135,516.436C848.048,502.523 925.485,460.43 985.469,440.436C1013.094,431.228 1012.667,430.57 1041.469,425.77C1050.346,424.29 1085.648,386.745 1067.469,423.103C1066.906,424.229 1066.504,423.726 1054.918,432.581C1106.74,457.629 1105.712,530.738 1092.135,551.103C1098.337,513.896 1075.657,456.499 1047.469,447.103C1040.166,444.669 1040.423,441.919 1008.802,446.436C992.32,448.791 993.281,451.173 977.885,457.927C1004.399,473.581 1026.153,465.156 1048.135,531.103C1060.011,566.73 1041.45,584.467 1039.328,587.945C1040.247,581.672 1044.365,553.561 1022.802,510.436C1020.723,506.28 975.002,462.148 948.135,471.103C943.548,472.632 943.911,472.685 939.069,474.036C941.691,476.386 948.486,482.473 962.802,511.103C964.383,514.265 978.333,581.545 940.361,605.203C965.049,520.329 939.028,473.916 899.469,487.103C896.281,488.166 909.212,490.131 899.469,529.103C895.606,544.552 877.709,562.19 875.26,564.603C882.007,543.451 879.715,543.031 886.802,521.77C895.511,495.643 853.116,506.476 846.135,520.436C844.978,522.752 835.609,530.472 833.469,519.77" style="fill:rgb(70,61,112);stroke:black;stroke-width:7.45px;"/>
                    </g>
                </g>
                <g transform="matrix(0.620173,0,0,0.620173,207.157754,222.149397)">
                    <path d="M814.135,505.77C796.77,508.664 794.089,526.761 792.135,540.436C795.53,534.779 796.096,535.513 802.246,533.066C798.275,563.889 805.334,563.504 807.469,562.436C809.447,561.447 822.87,588.3 832.802,568.436C835.467,563.106 836.866,565.428 842.135,567.77C841.313,556.264 840.517,556.521 840.961,544.976C842.049,545.39 843.047,546.023 844.135,546.436C844.502,546.576 844.135,546.436 848.776,548.003C849.081,544.966 851.184,524.011 842.135,510.436C838.343,504.748 824.454,498.61 812.802,504.436" style="fill:rgb(61,58,75);stroke:black;stroke-width:7.45px;"/>
                </g>
                <g transform="matrix(0.593309,-0.180553,0.180553,0.593309,139.214295,381.893435)">
                    <path d="M802.135,505.103C788.135,519.103 805.836,536.804 804.135,535.103C802.062,533.029 806.871,519.701 810.802,515.77C816.645,509.926 806.914,502.991 802.802,507.103" style="fill:rgb(238,219,223);stroke:black;stroke-width:5.36px;"/>
                </g>
                <g transform="matrix(-0.593309,-0.180553,-0.180553,0.593309,1297.041436,381.559581)">
                    <path d="M802.135,505.103C788.135,519.103 805.836,536.804 804.135,535.103C802.062,533.029 806.871,519.701 810.802,515.77C816.645,509.926 806.914,502.991 802.802,507.103" style="fill:rgb(238,219,223);stroke:black;stroke-width:5.36px;"/>
                </g>
                <g transform="matrix(0.620173,0,0,0.620173,209.026635,226.339942)">
                    <path d="M799.469,444.436C797.695,447.983 796.982,443.574 770.597,404.146C756.551,436.231 730.187,471.247 776.135,480.436C783.983,482.006 765.586,498.254 784.135,504.436C809.809,512.994 812.747,507.801 822.135,502.436C831.044,504.982 846.034,515.254 856.802,499.103C865.332,486.308 852.575,481.997 857.469,477.103C859.445,475.127 874.517,474.244 884.135,435.77C888.858,416.879 874.421,381.58 870.135,394.436C867.902,401.137 851.057,409.143 840.057,447.338C814.779,438.697 803.503,449.454 798.802,447.103" style="fill:rgb(61,58,75);stroke:black;stroke-width:7.45px;"/>
                </g>
                <g transform="matrix(0.620173,0,0,0.620173,207.157754,222.149397)">
                    <path d="M795.469,479.77C791.688,464.648 821.893,483.558 812.135,488.436C799.62,494.694 800.063,485.031 796.802,481.77" style="fill:rgb(221,8,52);stroke:black;stroke-width:3.7px;"/>
                </g>
                <g transform="matrix(-0.620173,0,0,0.620173,1226.933885,222.149397)">
                    <path d="M795.469,479.77C791.688,464.648 821.893,483.558 812.135,488.436C799.62,494.694 800.063,485.031 796.802,481.77" style="fill:rgb(221,8,52);stroke:black;stroke-width:3.7px;"/>
                </g>
            </g>
        </g>
    </g>
</svg>
