<?xml version="1.0" encoding="UTF-8" standalone="no"?>
<!DOCTYPE svg PUBLIC "-//W3C//DTD SVG 1.1//EN" "http://www.w3.org/Graphics/SVG/1.1/DTD/svg11.dtd">
<svg width="100%" height="100%" viewBox="0 0 166 187" version="1.1" xmlns="http://www.w3.org/2000/svg" xmlns:xlink="http://www.w3.org/1999/xlink" xml:space="preserve" xmlns:serif="http://www.serif.com/" style="fill-rule:evenodd;clip-rule:evenodd;stroke-linecap:round;stroke-linejoin:round;stroke-miterlimit:1.5;">
    <g transform="matrix(1,0,0,1,-1202.940811,-405.239973)">
        <g transform="matrix(1.084474,0,0,1,0,0)">
            <g transform="matrix(0.922106,0,0,1,347.057276,-88.071022)">
                <g transform="matrix(1,0,0,1,6.666658,4.166661)">
                    <g opacity="0.65">
                        <g>
                            <g transform="matrix(1,0,0,1,-40.175167,34.894393)">
                                <path d="M931.194,541.704C932.578,526.48 953.141,514.195 957.818,504.841C968.47,483.536 1026.928,451.471 1025.061,492.553C1024.551,503.762 995.516,519.025 986.49,528.051C981.277,533.264 974.501,532.339 954.405,542.387C951.804,543.687 938.637,545.663 934.266,547.848" style="fill:rgb(123,184,107);"/>
                            </g>
                            <g transform="matrix(1,0,0,1,-40.175167,34.894393)">
                                <path d="M955.429,535.219C959.403,537.868 991.319,533.731 989.562,561.843C988.416,580.188 958.964,583.019 946.213,563.891C945.989,563.555 942.142,561.603 940.069,553.31C939.781,552.16 937.953,544.845 943.823,538.974" style="fill:rgb(123,184,107);"/>
                            </g>
                        </g>
                        <g>
                            <g transform="matrix(1,0,0,1,-40.175167,34.894393)">
                                <path d="M924.709,540.339C915.049,527.46 917.711,525.491 901.157,508.936C895.27,503.05 880.883,484.906 864.293,495.966C856.259,501.322 860.537,526.549 870.096,534.195C877.474,540.098 876.533,542.582 899.45,547.166C902.025,547.681 902.016,550.941 915.834,549.214C919.735,548.726 920.649,547.812 920.954,547.507" style="fill:rgb(123,184,107);"/>
                            </g>
                            <g transform="matrix(1,0,0,1,-40.175167,34.894393)">
                                <path d="M908.666,542.046C891.182,549.039 876.296,589.168 893.648,594.952C898.972,596.727 904.111,601.372 918.223,592.904C924.272,589.276 930.123,572.625 930.17,571.4C930.781,555.512 928.33,555.774 925.391,549.896" style="fill:rgb(123,184,107);"/>
                            </g>
                        </g>
                    </g>
                </g>
                <g transform="matrix(0.745499,0,0,0.723999,224.856647,121.900892)">
                    <path d="M907.368,683.214C892.768,692.947 911.015,738.979 910.035,743.881C909.721,745.45 903.201,778.047 920.035,761.214C920.065,761.184 930.924,735.992 924.035,732.547C909.57,725.315 939.55,679.578 921.368,676.547C909.619,674.589 907.764,682.422 906.701,684.547" style="fill:rgb(142,102,65);stroke:black;stroke-width:7.76px;"/>
                </g>
                <g transform="matrix(0.745499,0,0,0.723999,220.719281,119.196592)">
                    <path d="M941.368,672.547C978.601,684.958 925.177,704.833 922.257,706.103C933.456,707.576 964.297,698.121 968.701,724.547C969.928,731.905 959.434,740.014 952.701,726.547C949.377,719.898 879.516,725.992 901.368,693.214C909.62,680.837 929.852,672.024 939.368,673.214" style="fill:rgb(142,102,65);stroke:black;stroke-width:7.76px;"/>
                </g>
                <g transform="matrix(0.745499,0,0,0.723999,225.743199,123.976472)">
                    <path d="M871.368,627.214C846.595,614.828 862.357,649.903 844.035,686.547C843.499,687.618 808.961,713.649 845.368,704.547C854.545,702.253 853.818,707.214 859.368,707.214C864.158,707.214 859.344,694.595 862.035,689.214C866.592,680.099 862.139,678.9 872.701,647.214C876.496,635.829 871.003,628.505 870.035,627.214" style="fill:rgb(142,102,65);stroke:black;stroke-width:7.76px;"/>
                </g>
                <g transform="matrix(0.745499,0,0,0.723999,221.968646,123.34889)">
                    <path d="M869.368,615.881C866.479,621.658 863.59,627.436 860.701,633.214C847.392,659.834 869.207,655.568 871.654,656.039C881.286,668.883 864.27,683.959 900.035,695.881C904.951,697.52 905.368,697.654 905.368,697.214C905.368,678.973 916.603,696.613 920.701,693.881C927.005,689.678 923.489,682.81 930.701,685.214C937.621,687.52 939.905,689.757 942.176,682.507C968.21,684.509 951.872,657.581 926.701,652.547C920.223,651.252 919.555,653.401 914.701,648.547C911.919,645.765 913.913,645.599 916.338,642.366C915.969,640.156 914.849,633.436 904.035,617.214C895.296,604.106 877.459,612.295 870.701,614.547" style="fill:rgb(28,166,66);stroke:black;stroke-width:7.76px;"/>
                </g>
                <g transform="matrix(-0.745499,0,0,0.723999,1534.002591,123.34889)">
                    <path d="M852.643,584.176C832.951,554.638 910.73,546.512 907.256,577.776C907.012,579.978 905.978,579.475 905.55,581.616C904.355,587.588 916.198,588.896 907.683,601.669C905.822,604.461 888.073,616.947 882.083,615.749C881.987,615.73 851.037,608.247 849.23,597.403C848.295,591.794 856.596,584.176 852.643,584.176Z" style="fill:rgb(142,102,65);"/>
                    <clipPath id="_clip1">
                        <path d="M852.643,584.176C832.951,554.638 910.73,546.512 907.256,577.776C907.012,579.978 905.978,579.475 905.55,581.616C904.355,587.588 916.198,588.896 907.683,601.669C905.822,604.461 888.073,616.947 882.083,615.749C881.987,615.73 851.037,608.247 849.23,597.403C848.295,591.794 856.596,584.176 852.643,584.176Z"/>
                    </clipPath>
                    <g clip-path="url(#_clip1)">
                        <g transform="matrix(-1.341384,0,0,1.381217,2057.686069,-170.371549)">
                            <g transform="matrix(1,0,0,1,-0.143151,-1.25829)">
                                <path d="M886.218,559.449C886.597,559.395 889.802,558.937 890.997,559.108C895.443,559.743 889.986,559.473 885.535,559.791" style="fill:none;stroke:rgb(123,184,107);stroke-width:7.58px;"/>
                            </g>
                            <g transform="matrix(1,0,0,1,-1.798181,-1.030151)">
                                <path d="M865.478,559.725C863.905,560.25 863.632,559.976 863.521,559.865C863.389,559.733 867.816,559.345 867.435,559.725C867.148,560.013 867.033,559.708 866.736,560.005" style="fill:none;stroke:rgb(123,184,107);stroke-width:7.58px;"/>
                            </g>
                            <path d="M888.949,551.94C888.714,551.823 887.153,552.103 887.583,552.964" style="fill:none;stroke:rgb(23,65,12);stroke-width:7.58px;"/>
                            <path d="M864.031,553.647C863.807,553.198 863.867,552.951 863.69,553.305" style="fill:none;stroke:rgb(23,65,12);stroke-width:7.58px;"/>
                        </g>
                    </g>
                    <path d="M913.868,582.211C914.307,581.234 914.701,580.032 914.853,578.671C915.903,569.219 912.103,562.118 905.489,557.212C897.632,551.385 884.944,549.043 873.058,550.347C864.727,551.261 856.871,553.925 851.381,557.854C846.666,561.228 843.536,565.566 842.341,570.476C841.238,575.007 841.654,580.244 844.747,585.988C844.171,587.078 843.564,588.282 843.146,589.262C841.791,592.434 841.198,595.759 841.694,598.734C842.535,603.78 846.749,608.986 853.213,612.921C863.888,619.42 880.551,623.463 880.625,623.478C883.451,624.043 888.068,623.255 893.049,620.939C901.859,616.843 912.433,608.455 913.987,606.125C918.004,600.098 918.689,595.537 918.362,592.071C918.089,589.185 917.075,586.792 915.703,584.694C915.229,583.969 914.489,583 913.868,582.211ZM852.643,584.176C832.951,554.638 910.73,546.512 907.256,577.776C907.012,579.978 905.978,579.475 905.55,581.616C904.355,587.588 916.198,588.896 907.683,601.669C905.822,604.461 888.073,616.947 882.083,615.749C881.987,615.73 851.037,608.247 849.23,597.403C848.295,591.794 856.596,584.176 852.643,584.176Z"/>
                </g>
                <g transform="matrix(0.745499,0,0,0.723999,221.968646,123.34889)">
                    <path d="M897.851,548.814C895.576,541.989 876.847,535.152 894.651,517.347C896.413,515.585 908.203,513.517 909.584,516.281C911.244,519.601 910.317,521.725 913.851,520.547C930.212,515.094 951.167,529.089 923.451,542.947C906.918,551.214 900.7,548.105 898.918,547.214C898.024,546.767 898.158,546.961 897.318,546.681" style="fill:rgb(171,203,49);stroke:black;stroke-width:7.76px;"/>
                </g>
                <g transform="matrix(0.745499,0,0,0.723999,221.968646,123.34889)">
                    <path d="M858.918,548.281C860.199,546.359 879.216,517.834 853.051,520.014C851.619,521.446 848.368,527.295 845.584,527.481C844.157,527.576 830.688,528.474 828.518,532.814C817.737,554.375 854.82,557.543 864.251,538.681" style="fill:rgb(171,203,49);stroke:black;stroke-width:7.76px;"/>
                </g>
                <g transform="matrix(0.745499,0,0,0.723999,221.968646,123.34889)">
                    <path d="M863.184,571.214C864.507,572.537 863.253,584.828 871.718,582.947C872.336,582.81 875.872,580.348 877.171,570.553C884.023,580.942 891.276,581.5 892.518,569.081C895.666,581.673 903.23,588.099 906.384,575.481C906.896,573.435 912.634,576.629 913.851,580.281C925.573,615.447 902.797,647.868 922.384,628.281C933.451,617.214 931.206,592.523 930.918,589.347C930.277,582.298 924.047,579.495 927.184,566.947C930.828,552.372 916.035,526.389 888.251,540.281C886.87,540.971 842.045,523.116 835.984,559.481C834.386,569.071 840.094,569.206 836.518,578.147C826.918,602.147 843.366,635.044 845.584,639.481C846.716,641.744 865.812,660.162 857.318,634.681C851.138,616.141 837.653,610.011 851.451,582.414C852.024,581.269 852.82,581.96 861.051,569.614" style="fill:rgb(171,203,49);stroke:black;stroke-width:7.76px;"/>
                </g>
                <g transform="matrix(0.745499,0,0,0.723999,220.551536,121.270185)">
                    <path d="M901.737,622.787C930.658,608.326 945.518,659.831 973.368,650.547C985.099,646.637 978.48,663.416 973.368,663.881C969.163,664.263 964.918,663.67 960.701,663.881C958.42,663.995 958.728,667.887 953.368,666.547C944.472,664.323 949.649,657.53 940.701,654.547C939.097,654.013 890.234,634.348 900.701,623.881" style="fill:rgb(142,102,65);stroke:black;stroke-width:7.76px;"/>
                </g>
            </g>
        </g>
    </g>
</svg>
