<?xml version="1.0" encoding="UTF-8" standalone="no"?>
<!DOCTYPE svg PUBLIC "-//W3C//DTD SVG 1.1//EN" "http://www.w3.org/Graphics/SVG/1.1/DTD/svg11.dtd">
<svg width="100%" height="100%" viewBox="0 0 867 742" version="1.1" xmlns="http://www.w3.org/2000/svg" xmlns:xlink="http://www.w3.org/1999/xlink" xml:space="preserve" xmlns:serif="http://www.serif.com/" style="fill-rule:evenodd;clip-rule:evenodd;stroke-linecap:round;stroke-linejoin:round;stroke-miterlimit:1.5;">
    <g transform="matrix(1,0,0,1,-2377.403514,-21.85421)">
        <g transform="matrix(1.084474,0,0,1,0,0)">
            <g transform="matrix(1,0,0,1,78.792717,-48.342669)">
                <g transform="matrix(0.922106,0,0,1,-0.503591,-93.237121)">
                    <path d="M2688.629,657.005C2682.581,660.634 2639.25,712.601 2651.829,750.338C2662.709,782.978 2693.029,807.36 2641.696,824.471C2597.744,839.121 2553.287,816.347 2512.096,857.537C2503.563,866.07 2515.905,861.956 2516.363,861.804C2525.072,858.901 2527.838,866.99 2538.763,868.204C2554.195,869.918 2566.218,875.585 2594.763,866.07C2664.668,842.769 2733.339,853.797 2816.629,860.204C2902.729,866.827 2922.149,788.221 2885.428,725.271C2844.055,654.346 2802.432,581.143 2674.762,610.605C2644.388,617.614 2697.608,650.591 2688.629,657.005Z" style="fill:rgb(72,59,28);"/>
                    <path d="M2683.257,654.135C2682.708,653.263 2681.921,652.075 2681.152,651.126C2677.931,647.15 2673.318,642.439 2669.319,637.707C2665.268,632.914 2661.874,628.031 2660.461,623.766C2659.044,619.488 2659.343,615.597 2661.421,612.297C2663.279,609.347 2666.902,606.569 2673.481,605.051C2726.211,592.882 2764.712,597.885 2794.681,612.704C2839.215,634.725 2864.959,678.868 2890.352,722.399C2913.665,762.364 2915.025,808.308 2893.159,837.142C2878.403,856.6 2853.077,868.724 2816.191,865.887C2733.744,859.545 2665.763,848.412 2596.565,871.478C2566.778,881.407 2554.238,875.658 2538.133,873.869C2532.808,873.277 2529.053,871.402 2525.809,869.522C2523.282,868.058 2521.473,866.109 2518.166,867.211C2517.795,867.335 2511.999,868.984 2509.172,868.483L2507.419,867.962L2506.022,867.152L2504.849,866.022L2503.928,864.492L2503.413,862.345L2503.728,859.725C2504.127,858.423 2505.256,856.316 2508.066,853.507C2529.869,831.704 2552.491,826.723 2575.524,825.361C2596.792,824.104 2618.411,826.224 2639.893,819.063C2655.195,813.963 2662.498,808.836 2664.454,802.183C2666.403,795.549 2663.006,788.248 2659.01,779.994C2654.877,771.457 2649.766,762.173 2646.422,752.14C2639.659,731.853 2647.483,707.657 2658.253,688.128C2667.165,671.968 2678.003,659.116 2683.257,654.135ZM2688.629,657.005C2682.581,660.634 2639.25,712.601 2651.829,750.338C2662.709,782.978 2693.029,807.36 2641.696,824.471C2597.744,839.121 2553.287,816.347 2512.096,857.537C2503.563,866.07 2515.905,861.956 2516.363,861.804C2525.072,858.901 2527.838,866.99 2538.763,868.204C2554.195,869.918 2566.218,875.585 2594.763,866.07C2664.668,842.769 2733.339,853.797 2816.629,860.204C2902.729,866.827 2922.149,788.221 2885.428,725.271C2844.055,654.346 2802.432,581.143 2674.762,610.605C2644.388,617.614 2697.608,650.591 2688.629,657.005Z"/>
                </g>
                <g transform="matrix(0.922106,0,0,1,0,-79.457644)">
                    <path d="M2938.336,845.67C2981.408,856.438 3009.424,872.044 3042.13,831.161L3034.689,835.253C3081.345,811.925 3106.753,699.86 3094.585,681.608C3087.232,670.579 3099.456,659.763 3091.981,637.337C3084.641,615.318 3086.099,615.697 3082.866,593.067C3073.583,528.085 3060.818,494.282 3037.294,447.234C3025.578,423.802 3009.421,435.229 2996.929,397.755C2996.731,397.161 2983.908,377.191 2983.908,375.62C2983.908,371.981 2980.418,372.908 2973.492,331.349C2973.415,330.889 2966.987,298.835 2970.888,326.141C2982.167,405.095 3035.847,424.666 3046.408,456.348C3060.359,498.201 3089.785,572.966 3095.887,570.931C3107.673,567.003 3103.841,562.977 3112.814,554.004C3113.212,553.607 3113.003,553.921 3125.029,515.438C3134.814,525.223 3140.616,528.732 3144.064,514.942C3156.06,466.958 3164.368,439.664 3138.856,388.64C3135.853,382.634 3138.126,382.86 3142.762,378.224C3153.31,367.676 3124.903,344.575 3127.137,322.234C3129.905,294.559 3102.687,237.744 3071.148,221.974C3052.015,212.408 3057.34,190.331 3037.294,180.308C2990.391,156.856 2971.759,131.695 2874.534,180.308C2823.753,205.698 2823.753,221.767 2823.753,216.766C2823.753,209.159 2825.499,201.999 2819.846,207.651C2815.235,212.263 2789.465,238.033 2783.388,280.568C2782.73,285.174 2778.114,317.484 2786.172,338.668C2737.081,359.053 2800.906,382.841 2783.388,400.359C2778.415,405.332 2780.077,431.256 2806.826,444.63C2840.521,461.477 2845.42,458.618 2853.7,487.598C2864.865,526.676 2897.919,508.222 2916.2,581.348C2933.159,649.185 2916.856,650.395 2926.617,728.483C2937.973,819.33 2928.23,834.107 2964.377,852.18" style="fill:rgb(85,72,39);stroke:black;stroke-width:5.7px;"/>
                </g>
                <g transform="matrix(0.922106,0,0,1,-25.081189,-71.991005)">
                    <path d="M2393.102,627.721C2389.599,629.472 2364.217,628.873 2348.836,644.254C2335.549,657.54 2345.249,665.974 2350.969,660.254C2356.233,654.99 2350.61,686.746 2364.836,672.521C2364.847,672.51 2372.247,687.564 2377.636,676.787C2393.692,644.675 2431.787,689.196 2454.969,700.787C2460.867,703.736 2525.516,732.474 2615.501,681.054C2653.85,659.14 2660.232,662.594 2673.101,623.987C2677.538,610.678 2686.728,592.401 2681.634,589.854" style="fill:rgb(85,72,39);stroke:black;stroke-width:5.7px;"/>
                </g>
                <g transform="matrix(0.922106,0,0,1,0,-79.457644)">
                    <path d="M2419.361,413.027C2411.501,405.166 2420.81,396.935 2416.028,373.027C2415.646,371.115 2408.757,349.229 2429.209,327.675C2445.285,330.837 2445.214,336.953 2456.028,342.36C2496.173,362.433 2485.704,467.699 2426.695,428.36C2419.404,423.5 2418.186,410.097 2418.028,408.36" style="fill:rgb(96,75,47);stroke:black;stroke-width:5.7px;"/>
                </g>
                <g transform="matrix(0.922106,0,0,1,0,-79.457644)">
                    <path d="M2372.028,600.359C2354.564,613.457 2349.322,618.006 2355.362,621.026C2362.593,624.642 2359.507,634.089 2372.695,629.693C2378.695,627.693 2419.953,607.064 2424.028,605.026C2442.264,595.908 2424.698,575.025 2390.695,586.36C2386.76,587.671 2371.317,595.115 2368.695,600.359" style="fill:rgb(226,215,118);"/>
                    <clipPath id="_clip1">
                        <path d="M2372.028,600.359C2354.564,613.457 2349.322,618.006 2355.362,621.026C2362.593,624.642 2359.507,634.089 2372.695,629.693C2378.695,627.693 2419.953,607.064 2424.028,605.026C2442.264,595.908 2424.698,575.025 2390.695,586.36C2386.76,587.671 2371.317,595.115 2368.695,600.359"/>
                    </clipPath>
                    <g clip-path="url(#_clip1)">
                        <g transform="matrix(1.204819,0,0,1,-498.399328,0)">
                            <path d="M2378.028,599.026C2386.28,601.777 2400.885,622.931 2400.028,620.359C2397.08,611.516 2398.514,598.485 2394.028,585.026C2390.115,573.286 2410.172,599.188 2420.695,611.026C2425.189,616.082 2430.785,625.513 2433.361,620.359" style="fill:none;stroke:black;stroke-width:5.15px;"/>
                        </g>
                    </g>
                    <path d="M2372.028,600.359C2354.564,613.457 2349.322,618.006 2355.362,621.026C2362.593,624.642 2359.507,634.089 2372.695,629.693C2378.695,627.693 2419.953,607.064 2424.028,605.026C2442.264,595.908 2424.698,575.025 2390.695,586.36C2386.76,587.671 2371.317,595.115 2368.695,600.359" style="fill:none;stroke:black;stroke-width:5.7px;"/>
                </g>
                <g transform="matrix(0.922106,0,0,1,2.667705,-85.555759)">
                    <path d="M2973.89,575.609C2976.335,576.424 2975.965,576.548 2998.557,591.609C3011.185,600.027 2976.966,598.361 2971.224,600.275C2970.743,600.435 2921.142,601.65 2947.89,588.275" style="fill:rgb(179,160,113);stroke:black;stroke-width:5.7px;"/>
                </g>
                <g transform="matrix(0.922106,0,0,1,-2.827297,-87.321931)">
                    <path d="M2410.543,404.133C2411.102,403.574 2416.135,398.541 2409.145,394.347C2408.678,394.067 2404.571,394.805 2399.533,391.026C2387.422,381.943 2423.792,363.541 2433.087,367.258C2439.02,369.632 2442.97,371.141 2446.544,385.434C2448.564,393.516 2438.162,392.243 2432.912,397.492C2431.648,398.756 2432.467,399.082 2431.689,400.638" style="fill:rgb(134,32,32);stroke:black;stroke-width:5.7px;"/>
                </g>
                <g transform="matrix(0.922106,0,0,1,0,-79.457644)">
                    <path d="M2322.909,610.727C2298.771,618.773 2283.502,577.514 2317.076,560.727C2325.051,556.739 2311.2,550.021 2323.742,512.394C2335.636,476.713 2365.907,429.228 2379.576,422.394C2382.307,421.028 2381.063,419.458 2410.409,399.894C2426.641,389.073 2483.767,370.323 2531.242,394.061C2599.908,428.394 2625.051,431.986 2633.741,433.227C2711.439,444.327 2764.042,384.994 2871.241,420.727C2909.741,433.561 2934.47,483.02 2937.907,489.894C2943.15,500.379 2967.484,526.943 2974.574,562.394C2981.27,595.873 2978.019,596.174 2986.24,629.06C3000.325,685.398 3000.407,749.892 2992.907,794.893C2988.998,818.344 2983.669,815.869 2960.407,862.393C2958.022,867.163 2919.362,882.164 2908.741,883.226C2799.984,894.101 2757.577,853.125 2669.575,870.726C2637.089,877.223 2561.163,867.471 2572.908,855.726C2573.382,855.252 2573.892,850.234 2564.575,854.893C2558.871,857.745 2557.455,857.698 2555.408,851.559C2583.161,810.675 2727.39,815.731 2727.39,815.731C2727.39,815.731 2641.452,716.924 2678.741,680.726C2679.795,679.704 2679.508,678.993 2667.075,666.56C2663.933,663.418 2652.908,652.393 2641.241,617.393C2638.413,608.909 2639.103,567.503 2628.741,588.227C2626.046,593.617 2566.509,646.694 2519.575,623.227C2491.785,609.332 2480.148,642.692 2418.564,637.094C2418.092,637.051 2331.16,653.617 2365.522,624.153C2376.973,614.335 2462.552,606.664 2415.782,588.703C2390.674,579.062 2340.188,645.722 2326.121,617.587C2323.719,612.784 2325.258,615.424 2322.909,610.727Z" style="fill:rgb(96,75,47);"/>
                    <clipPath id="_clip2">
                        <path d="M2322.909,610.727C2298.771,618.773 2283.502,577.514 2317.076,560.727C2325.051,556.739 2311.2,550.021 2323.742,512.394C2335.636,476.713 2365.907,429.228 2379.576,422.394C2382.307,421.028 2381.063,419.458 2410.409,399.894C2426.641,389.073 2483.767,370.323 2531.242,394.061C2599.908,428.394 2625.051,431.986 2633.741,433.227C2711.439,444.327 2764.042,384.994 2871.241,420.727C2909.741,433.561 2934.47,483.02 2937.907,489.894C2943.15,500.379 2967.484,526.943 2974.574,562.394C2981.27,595.873 2978.019,596.174 2986.24,629.06C3000.325,685.398 3000.407,749.892 2992.907,794.893C2988.998,818.344 2983.669,815.869 2960.407,862.393C2958.022,867.163 2919.362,882.164 2908.741,883.226C2799.984,894.101 2757.577,853.125 2669.575,870.726C2637.089,877.223 2561.163,867.471 2572.908,855.726C2573.382,855.252 2573.892,850.234 2564.575,854.893C2558.871,857.745 2557.455,857.698 2555.408,851.559C2583.161,810.675 2727.39,815.731 2727.39,815.731C2727.39,815.731 2641.452,716.924 2678.741,680.726C2679.795,679.704 2679.508,678.993 2667.075,666.56C2663.933,663.418 2652.908,652.393 2641.241,617.393C2638.413,608.909 2639.103,567.503 2628.741,588.227C2626.046,593.617 2566.509,646.694 2519.575,623.227C2491.785,609.332 2480.148,642.692 2418.564,637.094C2418.092,637.051 2331.16,653.617 2365.522,624.153C2376.973,614.335 2462.552,606.664 2415.782,588.703C2390.674,579.062 2340.188,645.722 2326.121,617.587C2323.719,612.784 2325.258,615.424 2322.909,610.727Z"/>
                    </clipPath>
                    <g clip-path="url(#_clip2)">
                        <path d="M2302.695,583.693C2306.608,575.867 2318.316,578.883 2336.695,569.693C2349.446,563.318 2323.86,634.191 2292.695,603.026C2279.236,589.567 2301.27,583.33 2302.029,583.026" style="fill:rgb(14,3,1);"/>
                    </g>
                    <path d="M2313.901,555.946C2313.712,554.692 2313.334,552.135 2313.044,549.913C2312.085,542.558 2311.633,530.697 2318.335,510.591C2326.849,485.05 2344.564,453.59 2359.226,434.619C2366.067,425.766 2372.461,419.578 2377.027,417.296C2377.423,417.098 2377.594,416.827 2378.095,416.379C2380.57,414.167 2386.236,409.159 2407.247,395.151C2424.246,383.818 2484.071,364.102 2533.791,388.962C2601.317,422.725 2626.002,426.364 2634.548,427.585C2672.622,433.024 2704.519,421.007 2740.058,412.207C2777.207,403.008 2818.133,397.017 2873.043,415.32C2913.285,428.734 2939.413,480.16 2943.005,487.345C2948.345,498.024 2972.942,525.171 2980.163,561.276C2986.832,594.621 2983.582,594.923 2991.77,627.677C3006.052,684.803 3006.134,750.199 2998.529,795.83C2996.425,808.457 2993.934,814.104 2988.841,822.857C2984.148,830.925 2977.05,841.853 2965.505,864.942C2964.784,866.384 2962.22,868.893 2957.889,871.281C2945.901,877.89 2918.198,888.008 2909.308,888.897C2854.234,894.405 2815.958,886.824 2780.311,880.054C2745.8,873.5 2713.836,867.686 2670.693,876.315C2654.633,879.527 2628.264,878.954 2606.522,876.078C2591.508,874.092 2578.667,870.906 2572.495,867.363C2568.887,865.292 2566.984,862.741 2566.297,860.391C2561.946,862.431 2558.985,862.698 2556.886,862.027C2554.435,861.244 2551.896,859.047 2550.001,853.362C2549.439,851.677 2549.695,849.827 2550.692,848.358C2559.628,835.195 2579.575,826.016 2603.457,820.25C2642.668,810.782 2692.437,809.754 2715.206,809.843C2702.181,793.361 2676.679,758.512 2667.346,727.493C2661.804,709.072 2662.048,691.951 2671.896,679.78C2670.083,677.814 2667.075,674.621 2663.044,670.59C2659.755,667.301 2648.049,655.842 2635.834,619.196C2634.584,615.446 2633.885,605.599 2632.805,597.037C2632.649,595.794 2632.408,594.438 2632.145,593.131C2631.125,594.347 2629.679,595.887 2627.807,597.627C2621.202,603.765 2608.703,613.604 2593.386,621.601C2570.773,633.407 2542.19,640.907 2517.026,628.325C2504.851,622.237 2496.284,627.133 2483.946,632.306C2469.369,638.417 2450.449,645.582 2418.764,642.834C2415.439,643.4 2401.691,645.801 2388.053,646.871C2376.868,647.748 2365.764,647.559 2359.714,645.263C2355.043,643.49 2352.537,640.458 2351.928,636.923C2351.568,634.837 2351.84,632.358 2353.32,629.527C2354.527,627.218 2356.733,624.422 2360.277,621.184L2359.496,621.664C2353.64,625.237 2348.086,628.014 2343.166,629.334C2338.544,630.575 2334.35,630.579 2330.73,629.283C2326.873,627.902 2323.498,625.088 2321.023,620.136C2320.238,618.567 2319.874,617.793 2319.658,617.297C2312.189,618.235 2305.602,615.547 2300.671,610.721C2288.045,598.362 2286.484,570.089 2313.901,555.946ZM2367.186,616.697C2368.932,615.92 2370.96,615.153 2373.218,614.418C2383.394,611.106 2398.862,607.826 2410.76,604.049C2414.666,602.809 2418.16,601.528 2420.857,600.149C2421.636,599.751 2422.47,599.195 2423.101,598.746C2422.784,598.486 2422.423,598.209 2422.067,597.98C2420.111,596.718 2417.368,595.419 2413.738,594.025C2408.971,592.194 2403.159,594.411 2396.754,597.663C2387.269,602.48 2376.95,610.126 2367.186,616.697ZM2322.909,610.727C2325.258,615.424 2323.719,612.784 2326.121,617.587C2340.188,645.722 2390.674,579.062 2415.782,588.703C2462.552,606.664 2376.973,614.335 2365.522,624.153C2331.16,653.617 2418.092,637.051 2418.564,637.094C2480.148,642.692 2491.785,609.332 2519.575,623.227C2566.509,646.694 2626.046,593.617 2628.741,588.227C2639.103,567.503 2638.413,608.909 2641.241,617.393C2652.908,652.393 2663.933,663.418 2667.075,666.56C2679.508,678.993 2679.795,679.704 2678.741,680.726C2641.452,716.924 2727.39,815.731 2727.39,815.731C2727.39,815.731 2583.161,810.675 2555.408,851.559C2557.455,857.698 2558.871,857.745 2564.575,854.893C2573.892,850.234 2573.382,855.252 2572.908,855.726C2561.163,867.471 2637.089,877.223 2669.575,870.726C2757.577,853.125 2799.984,894.101 2908.741,883.226C2919.362,882.164 2958.022,867.163 2960.407,862.393C2983.669,815.869 2988.998,818.344 2992.907,794.893C3000.407,749.892 3000.325,685.398 2986.24,629.06C2978.019,596.174 2981.27,595.873 2974.574,562.394C2967.484,526.943 2943.15,500.379 2937.907,489.894C2934.47,483.02 2909.741,433.561 2871.241,420.727C2764.042,384.994 2711.439,444.327 2633.741,433.227C2625.051,431.986 2599.908,428.394 2531.242,394.061C2483.767,370.323 2426.641,389.073 2410.409,399.894C2381.063,419.458 2382.307,421.028 2379.576,422.394C2365.907,429.228 2335.636,476.713 2323.742,512.394C2311.2,550.021 2325.051,556.739 2317.076,560.727C2283.502,577.514 2298.771,618.773 2322.909,610.727Z"/>
                </g>
                <g transform="matrix(1.019286,0,0,1.143451,-230.961013,-154.962629)">
                    <path d="M2376.631,526.103C2382.468,524.157 2376.671,519.013 2381,508.19C2381.769,506.267 2378.774,502.422 2409.618,487C2414.213,484.702 2427.838,470.3 2426.438,478.699C2422.439,502.694 2435.29,506.358 2422.943,517.583C2412.119,527.423 2394.873,525.699 2392.36,525.448C2389.01,525.113 2380.515,523.797 2379.471,525.884C2379.175,526.476 2378.92,526.529 2378.597,525.884"/>
                    <clipPath id="_clip3">
                        <path d="M2376.631,526.103C2382.468,524.157 2376.671,519.013 2381,508.19C2381.769,506.267 2378.774,502.422 2409.618,487C2414.213,484.702 2427.838,470.3 2426.438,478.699C2422.439,502.694 2435.29,506.358 2422.943,517.583C2412.119,527.423 2394.873,525.699 2392.36,525.448C2389.01,525.113 2380.515,523.797 2379.471,525.884C2379.175,526.476 2378.92,526.529 2378.597,525.884"/>
                    </clipPath>
                    <g clip-path="url(#_clip3)">
                        <g transform="matrix(0.981079,0,0,0.874546,226.591011,135.521926)">
                            <g transform="matrix(0.438779,0,0,0.475845,1157.670484,222.153822)">
                                <path d="M2392.117,424.357C2374.2,442.274 2419.173,447.246 2413.45,424.357C2408.809,405.79 2393.701,411.92 2392.117,424.357Z" style="fill:rgb(87,18,4);"/>
                            </g>
                            <g transform="matrix(0.438779,0,0,0.475845,1157.670484,222.153822)">
                                <path d="M2396.296,422.597C2394.897,419.798 2386.224,419.721 2385.985,425.917C2385.856,429.275 2385.45,433.595 2387.908,436.053C2398.294,446.439 2410.856,428.942 2404.685,422.771C2404.404,422.491 2403.078,418.332 2396.995,421.373" style="fill:rgb(241,241,241);"/>
                            </g>
                        </g>
                    </g>
                </g>
                <g transform="matrix(0.922106,0,0,1,0,-79.457644)">
                    <path d="M2389.957,530.909C2393.429,534.382 2425.741,533.832 2434.303,516.709" style="fill:none;stroke:black;stroke-width:5.7px;"/>
                </g>
                <g transform="matrix(0.922106,0,0,1,0,-79.457644)">
                    <path d="M2374.447,505.787C2379.248,486.583 2403.915,477.629 2409.836,471.708C2418.574,462.97 2419.304,462.605 2420.322,462.096C2420.378,462.068 2420.229,461.971 2420.759,461.441" style="fill:none;stroke:black;stroke-width:5.7px;"/>
                </g>
                <g transform="matrix(0.922106,0,0,1,0,0)">
                    <path d="M2550.526,318.39C2544.239,330.965 2554.489,327.048 2567.485,331.765C2572.882,340.76 2581.697,331.922 2583.193,342.39C2584.325,350.316 2587.587,349.048 2594.053,344.519C2599.768,348.843 2602.226,345.24 2604.526,346.39C2611.13,349.692 2610.828,349.753 2617.915,350.446C2626.4,361.097 2628.856,354.945 2631.192,355.723C2638.4,358.126 2638.484,360.411 2645.192,357.057C2650.804,354.251 2679.18,355.727 2684.526,354.39C2686.505,353.895 2686.17,354.061 2687.859,353.723C2697.377,351.82 2682.351,349.194 2676.526,349.723C2666.441,350.64 2682.683,332.56 2673.192,335.724C2670.837,336.509 2666.355,349.877 2663.192,340.39C2662.722,338.978 2659.52,343.059 2654.526,345.057C2655.859,341.057 2656.466,334.987 2656.555,334.1C2652.295,329.291 2651.674,333.242 2647.192,337.724C2642.717,342.199 2638.299,350.818 2635.192,338.39C2631.611,340.539 2631.788,342.355 2627.859,340.39C2625.322,339.121 2617.727,340.848 2617.193,340.39C2616.589,339.873 2621.668,321.914 2615.859,327.724C2611.722,331.861 2611.389,333.632 2606.526,330.39C2601.424,332.431 2601.034,334.898 2597.193,331.057C2591.368,325.232 2587.538,331.954 2587.193,331.724C2581.863,328.171 2578.951,330.939 2577.859,324.39C2577.308,321.083 2573.024,328.383 2571.859,323.724C2571.578,322.599 2572.931,305.985 2563.193,315.724C2560.062,318.855 2560.597,321.092 2556.526,319.057C2555.749,318.668 2555.841,318.895 2552.526,319.724" style="fill:rgb(19,71,28);stroke:black;stroke-width:5.7px;"/>
                </g>
                <g transform="matrix(0.922106,0,0,1,0,0)">
                    <path d="M2714.525,341.057C2713.306,342.276 2692.883,351.108 2709.192,348.39C2726.58,345.492 2726.923,349.525 2733.192,346.39C2739.189,343.392 2738.121,339.162 2744.31,341.638C2757.603,337.052 2785.689,334.418 2789.858,333.724C2814.858,329.557 2861.692,337.363 2867.858,338.39C2870.374,345.939 2882.875,351.689 2887.191,343.057C2887.858,341.724 2889.616,339.965 2889.858,339.724C2901.992,327.589 2889.918,327.845 2889.191,328.39C2884.318,332.045 2881.191,335.246 2881.191,329.057C2881.191,328.58 2881.191,315.724 2875.858,326.39C2872.661,332.783 2869.139,324.134 2860.525,329.057C2850.164,327.33 2851.016,312.986 2845.191,321.724C2840.271,329.104 2838.913,323.079 2830.525,319.724C2824.589,324.67 2824.149,320.536 2817.191,317.057C2814.116,315.519 2813.438,313.897 2811.858,317.057C2810.171,320.432 2811.959,323.441 2808.525,321.724C2799.851,317.387 2792.851,329.383 2781.858,318.39C2776.356,312.888 2779.58,326.496 2771.858,325.724C2764.87,325.025 2764.771,328.18 2758.525,325.057C2753.53,322.559 2753.521,329.677 2753.192,329.724C2749.286,330.282 2745.933,325.335 2733.859,334.39C2731.859,333.724 2729.859,333.057 2727.859,332.39C2722.413,336.746 2723.455,337.991 2716.525,339.724C2715.57,339.086 2708.525,331.455 2708.525,343.057C2708.525,349.582 2719.189,348.392 2719.192,348.39" style="fill:rgb(19,71,28);stroke:black;stroke-width:5.7px;"/>
                </g>
                <g transform="matrix(0.922106,0,0,1,0,0)">
                    <path d="M2888.056,345.588C2881.649,351.995 2896.175,353.962 2897.067,358.422C2897.211,359.142 2896.372,360.557 2899.798,361.699C2902.277,362.525 2901.696,363.2 2901.428,365.88C2906.559,369.017 2904.541,371.306 2909.901,373.987C2919.295,378.684 2919.44,379.12 2919.732,379.994C2921.828,386.284 2924.492,384.718 2926.558,390.917C2926.784,391.593 2925.346,392.768 2929.835,395.013C2932.341,396.266 2932.951,400.859 2936.935,404.843C2942.08,409.988 2938.67,415.358 2947.038,418.496C2945.428,413.666 2948.574,413.017 2945.673,408.666C2944.32,406.637 2944.558,404.536 2942.396,401.293C2942.272,401.106 2944.135,398.117 2941.577,395.559C2937.729,391.711 2933.505,382.922 2931.473,381.906C2926.715,379.527 2934.076,371.009 2927.378,372.348C2927.205,372.383 2925.522,372.719 2925.466,371.256C2925.249,365.601 2925.929,360.69 2921.916,364.703C2920.447,366.172 2919.67,366.914 2919.186,364.976C2918.351,361.638 2916.158,363.763 2915.909,362.518C2915.504,360.497 2919.511,346.573 2914.27,350.503C2912.673,351.702 2913.319,352.464 2909.082,354.053C2908.76,353.517 2908.222,352.619 2903.131,348.983C2902.782,346.544 2902.176,346.434 2899.798,347.226C2899.336,347.38 2896.298,341.74 2892.971,343.404C2890.171,344.804 2889.284,343.816 2888.329,346.68" style="fill:rgb(19,71,28);stroke:black;stroke-width:5.7px;"/>
                </g>
                <g transform="matrix(0.922106,0,0,1,0,-79.457644)">
                    <path d="M2505.287,451.583C2512.58,458.876 2514.167,454.829 2521.053,447.402C2504.283,442.611 2527.783,437.911 2528.754,437.717C2539.65,435.538 2546.867,454.722 2528.021,452.628C2516.487,471.85 2502.055,457.418 2500.487,455.85" style="fill:rgb(134,32,32);stroke:black;stroke-width:5.7px;"/>
                </g>
                <g transform="matrix(0.922106,0,0,1,0,-79.457644)">
                    <path d="M2422.461,449.983C2420.975,451.47 2414.017,444.265 2423.741,441.024C2433.353,437.82 2435.05,445.501 2432.274,448.277" style="fill:rgb(134,32,32);stroke:black;stroke-width:5.7px;"/>
                </g>
                <g transform="matrix(0.922106,0,0,1,0,-79.457644)">
                    <path d="M2381.928,464.063C2375.635,462.49 2387.237,449.222 2389.608,461.077" style="fill:rgb(134,32,32);stroke:black;stroke-width:5.7px;"/>
                </g>
                <g transform="matrix(0.922106,0,0,1,0,-79.457644)">
                    <path d="M2690.312,690.991C2659.517,698.689 2699.2,703.054 2705.245,702.191C2717.126,700.493 2723.904,699.248 2716.445,689.924" style="fill:rgb(179,160,113);stroke:black;stroke-width:5.7px;"/>
                </g>
                <g transform="matrix(0.922106,0,0,1,0,-79.457644)">
                    <path d="M2434.062,426.335C2432.188,424.461 2434.126,410.079 2439.182,406.708C2448.32,400.617 2443.536,398.273 2441.742,387.508C2440.873,382.296 2440.018,382.712 2439.182,377.695C2437.422,367.135 2446.953,348.073 2448.142,345.695C2453.676,334.627 2487.7,353.984 2497.635,373.855C2497.784,374.152 2505.285,383.678 2505.742,390.068C2507.559,415.514 2504.529,415.869 2510.008,432.308C2518.355,457.348 2498.901,461.239 2496.355,461.748" style="fill:rgb(96,75,47);stroke:black;stroke-width:5.7px;"/>
                </g>
                <g transform="matrix(0.922106,0,0,1,0,0)">
                    <path d="M2703.071,580.337C2709.471,577.137 2734.021,560.77 2736.67,559.004C2742.33,555.231 2773.348,526.715 2779.337,514.738C2780.201,513.01 2787.87,497.671 2791.603,493.938C2792.548,492.993 2792.154,492.836 2799.07,479.004C2801.603,473.939 2820.015,446.182 2836.403,413.405C2839.251,407.709 2851.111,394.656 2853.47,389.938C2855.092,386.695 2868.581,359.716 2880.67,353.672C2881.921,353.046 2895.603,346.205 2894.536,343.005C2892.939,338.212 2874.988,333.035 2870.003,343.005C2868.347,346.317 2850.258,376.617 2844.403,382.472C2843.87,383.005 2838.008,394.73 2837.47,395.805C2834.736,401.273 2828.705,397.336 2803.87,447.005C2768.99,516.764 2755.403,526.954 2748.937,531.804C2747.328,533.011 2728.635,551.022 2715.87,557.404C2705.117,562.781 2706.263,564.341 2695.604,569.671C2683.239,575.853 2690.973,585.319 2699.871,580.871C2701.846,579.883 2701.575,579.947 2703.604,579.271" style="fill:rgb(62,95,68);stroke:black;stroke-width:5.7px;"/>
                </g>
                <g transform="matrix(0.922106,0,0,1,0,-79.457644)">
                    <path d="M2504.568,569.054C2511.414,589.591 2520.432,590.859 2508.302,609.054C2460.621,680.575 2396.205,642.366 2392.035,642.121C2388.557,641.916 2353.938,637.392 2361.636,652.787C2362.438,654.392 2366.305,653.984 2363.236,657.054C2348.173,672.117 2361.672,673.207 2362.702,672.521C2364.618,671.244 2364.357,671.219 2366.436,670.387C2367.86,683.207 2371.58,687.196 2381.902,679.454C2397.752,667.566 2416.725,745.336 2589.901,738.12C2707.798,733.208 2704.947,660.489 2709.368,638.387C2714.922,610.616 2709.317,584.229 2703.501,581.321" style="fill:rgb(96,75,47);stroke:black;stroke-width:5.7px;"/>
                </g>
                <g transform="matrix(0.922106,0,0,1,0,-79.457644)">
                    <path d="M2603.225,444.943C2606.425,438.543 2630.226,441.943 2632.558,442.276C2656,445.625 2665.507,443.994 2659.225,450.276C2641.07,468.431 2577.844,471.197 2595.225,459.609" style="fill:rgb(179,160,113);stroke:black;stroke-width:5.7px;"/>
                </g>
                <g transform="matrix(0.922106,0,0,1,0,-79.457644)">
                    <path d="M2582.559,470.276C2579.935,475.523 2578.119,475.269 2573.892,481.609C2571.588,485.065 2602.243,483.258 2605.892,479.609C2613.926,471.574 2600.01,471.792 2598.559,472.276" style="fill:rgb(179,160,113);stroke:black;stroke-width:5.7px;"/>
                </g>
                <g transform="matrix(0.922106,0,0,1,0,-79.457644)">
                    <path d="M2627.225,490.942C2607.388,506.812 2657.834,494.971 2663.225,492.276C2676.514,485.631 2661.128,478.385 2647.892,480.276" style="fill:rgb(179,160,113);stroke:black;stroke-width:5.7px;"/>
                </g>
                <g transform="matrix(0.922106,0,0,1,0,-79.457644)">
                    <path d="M2945.89,547.609C2930.133,563.366 2980.923,553.264 2985.89,551.609C3013.599,542.372 2966.394,536.942 2961.89,536.942" style="fill:rgb(179,160,113);stroke:black;stroke-width:5.7px;"/>
                </g>
                <g transform="matrix(0.922106,0,0,1,0,-79.457644)">
                    <path d="M2713.778,709.657C2706.444,711.491 2704.785,722.978 2720.711,720.324C2739.959,717.116 2763.907,721.415 2765.511,711.791C2767.236,701.443 2748.178,701.857 2747.378,701.657" style="fill:rgb(179,160,113);stroke:black;stroke-width:5.7px;"/>
                </g>
                <g transform="matrix(0.922106,0,0,1,0,-79.457644)">
                    <path d="M2680.712,728.324C2675.2,730.161 2656.994,742.814 2680.178,745.39C2701.435,747.752 2702.527,744.476 2703.111,742.724C2704.487,738.596 2703.134,738.463 2698.845,737.391" style="fill:rgb(179,160,113);stroke:black;stroke-width:5.7px;"/>
                </g>
                <g transform="matrix(0.922106,0,0,1,-7.854378,-100.686317)">
                    <path d="M2966.557,595.609C2941.224,608.275 2976.908,601.138 2977.89,600.942C2986.48,599.224 2979.652,596.338 2976.557,594.275" style="fill:rgb(179,160,113);stroke:black;stroke-width:5.7px;"/>
                </g>
                <g transform="matrix(0.922106,0,0,1,0,-79.457644)">
                    <path d="M2516.579,396.685C2528.849,390.55 2510.766,388.766 2512.313,383.352C2512.653,382.159 2513.759,383.505 2524.046,373.218C2526.378,370.886 2545.435,376.362 2532.579,389.218C2530.888,390.909 2533.563,391.6 2531.513,397.752" style="fill:rgb(134,32,32);stroke:black;stroke-width:5.7px;"/>
                </g>
                <g transform="matrix(0.922106,0,0,1,0,-79.457644)">
                    <path d="M2519.971,422.072C2503.47,416.571 2533.258,400.517 2540.792,415.586C2546.49,426.982 2532.603,421.724 2529.187,428.557" style="fill:rgb(134,32,32);stroke:black;stroke-width:5.7px;"/>
                </g>
                <g transform="matrix(0.881916,-0.292012,0.269266,0.956415,-20.045579,614.364424)">
                    <path d="M2363.893,450.943C2364.383,450.452 2367.882,441.615 2355.893,447.609C2334.834,458.139 2335.869,434.962 2355.893,418.276C2368.7,407.604 2370.918,406.122 2393.893,417.609C2404.347,422.836 2384.531,434.971 2383.226,436.276C2379.002,440.5 2384.764,441.866 2382.559,446.276" style="fill:rgb(134,32,32);stroke:black;stroke-width:5.7px;"/>
                </g>
                <g transform="matrix(0.922106,0,0,1,0,-79.457644)">
                    <path d="M2357.59,463.552C2356.955,463.711 2352.182,460.919 2356.366,455.688C2357.695,454.027 2361.357,451.759 2355.318,449.746C2347.59,447.17 2328.546,458.975 2335.22,465.649C2337.164,467.594 2346.855,462.757 2347.978,469.494C2347.991,469.575 2348.094,469.378 2348.153,469.319" style="fill:rgb(134,32,32);stroke:black;stroke-width:5.7px;"/>
                </g>
                <g transform="matrix(0.922106,0,0,1,0,-79.457644)">
                    <path d="M2402.329,426.678C2406.482,420.448 2395.787,422.605 2395.513,419.862C2395.16,416.329 2399.529,414.795 2406.523,411.298C2415.759,406.681 2424.035,415.999 2417.009,419.512C2414.437,420.798 2414.655,421.445 2415.96,424.056" style="fill:rgb(134,32,32);stroke:black;stroke-width:5.7px;"/>
                </g>
                <g transform="matrix(0.922106,0,0,1,0,0)">
                    <path d="M2685.57,351.7C2706.032,331.238 2737.26,380.771 2718.07,457.533C2704.317,512.542 2724.327,593.598 2789.736,600.865C2806.488,602.727 2789.711,638.415 2797.236,623.365C2809.678,598.481 2798.524,572.305 2784.736,579.199C2775.34,583.897 2742.165,570.297 2738.07,537.532C2735.938,520.48 2729.297,494.685 2742.236,455.866C2751.852,427.019 2751.158,381.333 2739.736,364.2C2735.481,357.818 2726.575,353.712 2723.903,348.367C2720.432,341.425 2693.742,323.528 2677.237,340.033C2666.353,350.917 2681.16,352.238 2685.57,350.033" style="fill:rgb(62,95,68);stroke:black;stroke-width:5.7px;"/>
                </g>
                <g transform="matrix(0.922106,0,0,1,0,0)">
                    <path d="M2473.502,557.778C2461.606,572.493 2453.344,609.927 2459.738,628.365C2463.9,640.368 2478.452,682.353 2452.238,704.198C2467.949,705.944 2495.744,676.212 2471.404,627.532C2467.61,619.943 2472.704,563.299 2495.168,545.878C2500.749,541.55 2500.437,538.501 2498.618,540C2478.677,556.426 2474.289,556.204 2473.502,557.778Z" style="fill:rgb(62,95,68);"/>
                    <path d="M2469.069,554.195L2468.404,555.229L2469.785,553.346C2470.22,552.922 2470.792,552.471 2471.609,551.99C2473.708,550.754 2479.524,548.343 2494.994,535.6L2497.103,534.349L2499.591,533.916L2501.004,534.123L2502.495,534.748L2503.799,535.781L2504.711,537.02L2505.432,539.17L2505.369,541.451C2505.059,543.083 2503.533,546.604 2498.661,550.382C2486.144,560.089 2479.907,583.11 2477.303,601.335C2476.238,608.79 2475.83,615.492 2475.997,620.285C2476.074,622.513 2476.1,624.179 2476.502,624.983C2495.186,662.349 2484.982,689.487 2471.793,701.778C2465.199,707.924 2457.637,710.533 2451.608,709.863C2449.337,709.611 2447.437,708.027 2446.779,705.839C2446.121,703.651 2446.833,701.282 2448.589,699.819C2457.758,692.179 2461.086,681.657 2461.711,671.185C2462.728,654.135 2456.723,637.069 2454.352,630.233C2450.893,620.258 2451.197,605.146 2454.176,590.537C2457.132,576.038 2462.682,562.095 2469.069,554.195ZM2473.502,557.778C2461.606,572.493 2453.344,609.927 2459.738,628.365C2463.9,640.368 2478.452,682.353 2452.238,704.198C2467.949,705.944 2495.744,676.212 2471.404,627.532C2467.61,619.943 2472.704,563.299 2495.168,545.878C2500.749,541.55 2500.437,538.501 2498.618,540C2478.677,556.426 2474.289,556.204 2473.502,557.778Z"/>
                </g>
                <g transform="matrix(0.922106,0,0,1,0,0)">
                    <path d="M2716.937,733.937C2734.25,725.28 2726.723,716.035 2768.67,688.07C2782.303,678.982 2791.688,666.276 2835.87,648.604C2841.203,646.47 2859.439,637.353 2861.47,636.337C2865.441,634.351 2868.936,632.604 2913.736,617.67C2969.733,599.005 2974.606,589.867 2985.736,578.737C2993.333,571.14 3002.801,565.667 2996.936,551.004C2996.655,550.303 2987.532,542.92 2990.536,557.937C2991.52,562.857 2935.836,597.479 2908.403,604.337C2901.272,606.12 2855.916,612.84 2791.07,656.07C2717.405,705.18 2722.352,723.182 2710.537,724.87C2699.284,726.477 2712.729,738.678 2717.47,733.937C2718.359,733.048 2719.248,732.159 2720.137,731.27" style="fill:rgb(62,95,68);stroke:black;stroke-width:5.7px;"/>
                </g>
                <g transform="matrix(0.922106,0,0,1,0,0)">
                    <path d="M2690.364,625.545C2683.801,590.721 2619.545,560.803 2578.364,540.212C2573.699,537.88 2556.563,535.9 2541.031,525.546C2533.88,520.778 2513.331,519.637 2510.874,519.5C2507.41,523.245 2508.221,523.349 2506.826,527.905L2507.698,530.212C2510.378,530.978 2534.978,532.843 2543.031,538.212C2543.749,538.691 2622.285,564.133 2637.031,578.879C2655.643,597.491 2676.165,600.262 2682.751,633.191C2684.602,642.444 2684.937,632.974 2687.776,630.643C2691.999,627.177 2690.3,625.863 2690.364,625.545Z" style="fill:rgb(62,95,68);"/>
                    <path d="M2695.954,624.428L2696.213,625.218L2696.341,626.991C2696.271,628.513 2695.853,631.278 2691.678,634.811C2691.506,635.21 2690.75,636.971 2690.442,637.757C2689.7,639.645 2688.697,640.912 2688.025,641.469L2686.649,642.333L2685.297,642.764L2683.972,642.866L2682.649,642.67L2680.84,641.847L2679.364,640.457C2678.826,639.76 2677.896,637.982 2677.162,634.308C2673.578,616.39 2665.412,608.339 2655.832,601.102C2648.595,595.634 2640.651,590.561 2633,582.909C2627.4,577.309 2612.002,570.292 2595.626,563.609C2572.457,554.154 2547.214,545.737 2542.085,543.94C2540.698,543.454 2539.974,543.025 2539.869,542.955C2537.1,541.108 2532.002,539.907 2526.796,538.892C2517.498,537.079 2507.778,536.163 2506.132,535.693C2504.399,535.198 2503.003,533.913 2502.366,532.227L2501.494,529.919C2501.048,528.738 2501.007,527.443 2501.376,526.236C2503.15,520.443 2502.285,520.392 2506.689,515.63C2507.843,514.382 2509.493,513.715 2511.19,513.809C2512.988,513.909 2524.055,514.537 2533.099,516.607C2537.583,517.633 2541.598,519.073 2544.193,520.803C2554.447,527.639 2565.466,530.547 2572.65,532.466C2576.413,533.471 2579.3,534.307 2580.914,535.114C2605.9,547.607 2639.265,563.534 2663.41,581.853C2680.613,594.905 2693.09,609.375 2695.954,624.428ZM2690.364,625.545C2683.801,590.721 2619.545,560.803 2578.364,540.212C2573.699,537.88 2556.563,535.9 2541.031,525.546C2533.88,520.778 2513.331,519.637 2510.874,519.5C2507.41,523.245 2508.221,523.349 2506.826,527.905L2507.698,530.212C2510.378,530.978 2534.978,532.843 2543.031,538.212C2543.749,538.691 2622.285,564.133 2637.031,578.879C2655.643,597.491 2676.165,600.262 2682.751,633.191C2684.602,642.444 2684.937,632.974 2687.776,630.643C2691.999,627.177 2690.3,625.863 2690.364,625.545ZM2695.949,624.414C2695.888,624.139 2695.801,623.85 2695.68,623.55C2695.663,623.506 2695.642,623.455 2695.617,623.401L2695.949,624.414ZM2695.965,624.49C2696.101,625.208 2696.097,625.946 2695.953,626.663C2696.068,626.09 2696.145,625.355 2695.965,624.49Z"/>
                </g>
            </g>
        </g>
    </g>
</svg>
