<?xml version="1.0" encoding="UTF-8" standalone="no"?>
<!DOCTYPE svg PUBLIC "-//W3C//DTD SVG 1.1//EN" "http://www.w3.org/Graphics/SVG/1.1/DTD/svg11.dtd">
<svg width="100%" height="100%" viewBox="0 0 437 595" version="1.1" xmlns="http://www.w3.org/2000/svg" xmlns:xlink="http://www.w3.org/1999/xlink" xml:space="preserve" xmlns:serif="http://www.serif.com/" style="fill-rule:evenodd;clip-rule:evenodd;stroke-linecap:round;stroke-linejoin:round;stroke-miterlimit:1.5;">
    <g transform="matrix(1,0,0,1,-983.289025,-177.458365)">
        <g transform="matrix(1,0,0,1,-460.366839,-131.594968)">
            <g transform="matrix(1,-0,-0,1,1443.655864,309.053333)">
            </g>
        </g>
        <g id="Body-Purple" transform="matrix(1.743831,0,0,1.743831,589.424042,-527.452955)">
            <path d="M413.508,605.364C417.409,620.367 419.127,635.5 419.127,647.779C419.127,687.066 351.161,686.28 351.161,686.28C351.161,686.28 283.195,687.066 283.195,647.779C283.195,635.5 284.913,620.367 288.813,605.364C316.519,615.419 351.161,613.141 351.161,613.141C351.161,613.141 385.803,615.419 413.508,605.364Z" style="fill:rgb(48,51,160);stroke:black;stroke-width:3.04px;"/>
        </g>
        <g id="Head" transform="matrix(1.743831,0,0,1.743831,794.951946,-476.070979)">
            <path d="M170.953,575.899C179.532,542.903 198.667,510.535 233.301,510.535C267.934,510.535 287.07,542.903 295.648,575.899C267.942,585.954 233.301,583.676 233.301,583.676C233.301,583.676 198.659,585.954 170.953,575.899Z" style="fill:rgb(241,187,140);stroke:black;stroke-width:3.04px;"/>
        </g>
        <g id="Beard" transform="matrix(1,0,0,0.880944,922.892726,84.698733)">
            <path d="M196.887,493.932C152.605,501.312 156.358,542.923 168.113,554.678C171.593,558.158 170.044,559.006 173.708,562.67C217.824,606.786 222.571,601.143 248.042,626.614C255.597,634.168 257.143,631.718 264.827,639.402C270.067,644.642 276.19,656.639 278.415,652.191C289.964,629.092 386.031,600.3 398.308,563.47C403.845,546.858 398.967,520.967 391.914,513.914C384.92,506.92 387.241,504.384 375.928,498.727C332.887,477.207 242.631,473.058 221.665,483.541C204.312,492.217 198.935,489.486 195.289,493.132" style="fill:rgb(231,233,233);stroke:black;stroke-width:6.05px;"/>
        </g>
        <g id="Pointy-Pink" serif:id="Pointy Pink" transform="matrix(1.929998,0,0,1.743831,753.421634,-447.817383)">
            <path d="M177.158,547.216C177.158,547.216 208.906,556.426 233.301,555.935C257.696,555.444 282.25,549.301 288.634,546.725C295.018,544.149 242.472,459.683 248.365,445.442C254.258,431.2 259.978,407.137 233.301,422.852C206.623,438.566 182.56,512.229 180.105,527.453C177.649,542.676 177.158,547.216 177.158,547.216Z" style="fill:rgb(242,48,253);stroke:black;stroke-width:3.1px;"/>
        </g>
        <g id="Nose" transform="matrix(1.743831,0,0,1.743831,792.231793,-489.248422)">
            <ellipse cx="234.861" cy="591.454" rx="24.8" ry="15.554" style="fill:rgb(241,187,140);stroke:black;stroke-width:3.27px;"/>
        </g>
    </g>
</svg>
