<?xml version="1.0" encoding="UTF-8" standalone="no"?>
<!DOCTYPE svg PUBLIC "-//W3C//DTD SVG 1.1//EN" "http://www.w3.org/Graphics/SVG/1.1/DTD/svg11.dtd">
<svg width="100%" height="100%" viewBox="0 0 202 299" version="1.1" xmlns="http://www.w3.org/2000/svg" xmlns:xlink="http://www.w3.org/1999/xlink" xml:space="preserve" xmlns:serif="http://www.serif.com/" style="fill-rule:evenodd;clip-rule:evenodd;stroke-linecap:round;stroke-linejoin:round;stroke-miterlimit:1.5;">
    <g transform="matrix(1,0,0,1,-901.268802,-458.416602)">
        <g transform="matrix(1.084474,0,0,1,0,0)">
            <g transform="matrix(1.073163,0,0,1.163818,126.780453,-123.608649)">
                <path d="M693.712,724.601C694.268,734.615 696.332,734.035 699.479,743.476C699.671,744.054 698.62,741.371 691.964,744.699C688.266,746.548 685.337,752.516 688.119,752.913C697.529,754.257 716.751,753.38 717.654,749.767C718.773,745.29 720.902,744.535 720.974,743.301C722.002,725.825 728.388,721.037 718.877,718.659C717.77,718.383 709.756,714.36 697.906,718.31C693.656,719.726 694.155,722.721 694.236,723.203" style="fill:rgb(78,154,68);stroke:black;stroke-width:4.9px;"/>
                <path d="M744.917,719.184C747.489,742.333 741.924,751.467 754.179,753.509C770.523,756.233 772.285,752.906 772.355,751.515C772.834,741.924 766.443,743.26 766.063,740.854C764.728,732.4 778.26,720.104 759.772,713.941C755,712.35 745.616,714.526 745.616,720.582C745.616,720.626 745.616,720.582 745.441,721.106" style="fill:rgb(78,154,68);stroke:black;stroke-width:4.9px;"/>
                <path d="M718.76,625.046C714.025,631.538 706.243,633.414 692.76,660.379C692.309,661.281 673.924,685.334 688.094,703.046C691.168,706.889 690.325,714.222 696.094,715.046C724.732,719.137 725.576,709.787 737.427,715.713C740.175,717.087 771.923,724.14 776.094,713.713C789.266,680.781 796.163,648.449 774.76,627.046C769.398,621.683 729.908,613.232 720.094,623.046C719.484,623.656 719.512,624.67 718.76,625.046Z" style="fill:rgb(78,154,68);"/>
                <path d="M688.495,657.959C702.156,630.714 709.994,628.753 714.803,622.16C714.953,621.955 715.118,621.762 715.297,621.583C715.623,620.974 716.153,620.06 716.63,619.583C718.74,617.473 721.81,615.876 725.61,614.905C730.272,613.714 736.163,613.416 742.321,613.781C752.644,614.392 763.734,616.826 770.624,619.383C774.314,620.752 776.953,622.313 778.223,623.583C789.95,635.309 794.047,649.985 793.285,666.285C792.567,681.651 787.445,698.522 780.641,715.531C778.832,720.055 773.828,722.982 767.051,723.86C755.043,725.415 737.349,721.149 735.237,720.093C730.627,717.788 728.145,718.644 724.043,719.488C718.442,720.642 710.613,722.067 695.401,719.894C691.212,719.296 688.841,716.939 687.27,713.722C686.652,712.456 686.18,711.024 685.717,709.579C685.321,708.341 685.022,707.046 684.269,706.105C677.566,697.727 676.897,688.175 678.692,679.628C680.92,669.027 687.021,660.135 688.442,658.038L688.495,657.959ZM718.76,625.046C714.025,631.538 706.243,633.414 692.76,660.379C692.309,661.281 673.924,685.334 688.094,703.046C691.168,706.889 690.325,714.222 696.094,715.046C724.732,719.137 725.576,709.787 737.427,715.713C740.175,717.087 771.923,724.14 776.094,713.713C789.266,680.781 796.163,648.449 774.76,627.046C769.398,621.683 729.908,613.232 720.094,623.046C719.484,623.656 719.512,624.67 718.76,625.046Z"/>
                <g transform="matrix(1,0,0,1,-2.801958,-1.377542)">
                    <path d="M685.847,687.202C690.012,691.367 711.193,694.393 713.46,694.717C721.88,695.92 745.866,694.542 753.655,694.542C754.535,694.542 772.038,692.026 781.268,688.95C782.921,688.399 787.002,685.761 785.986,689.824C785.409,692.132 785.824,692.151 784.938,694.367C781.208,703.691 779.169,723.209 778.821,724.252C755.137,724.252 748.141,723.59 740.144,724.794C734.84,716.76 734.947,716.73 734.481,716.038C734.211,716.747 733.975,717.367 733.548,725.481C728.14,725.3 708.475,725.3 706.294,725.3C705.069,725.3 693.012,725.3 690.98,725.484C691.518,724.588 692.358,724.658 691.44,716.388C691.179,714.043 674.444,710.707 684.1,691.396C684.258,691.08 686.197,687.202 685.498,687.202" style="fill:rgb(75,42,31);stroke:black;stroke-width:4.9px;"/>
                </g>
                <path d="M740.723,627.958C737.376,631.305 722.47,672.193 737.227,701.707C738.354,703.962 739.762,702.909 743.344,703.805C752.832,706.177 785.382,704.837 787.559,700.484C798.615,678.371 796.297,677.517 796.297,652.774C796.297,646.657 793.255,639.053 792.802,637.919C788.15,626.289 784.78,625.178 778.122,618.52C771.29,611.689 750.575,618.804 747.713,621.666C743.703,625.676 740.752,623.296 738.975,630.404C738.003,634.292 736.341,633.702 736.004,637.744" style="fill:rgb(75,42,31);stroke:black;stroke-width:4.9px;"/>
                <path d="M716.78,629.006C716.302,629.963 717.922,634.227 715.732,642.987C714.926,646.209 711.474,677.367 700.877,698.562C699.39,701.535 698.657,700.642 695.459,701.707C691.894,702.896 681.554,703.926 681.653,703.63C682.558,700.914 672.869,695.552 678.682,678.115C678.74,677.94 679.711,673.979 681.129,669.726C689.168,645.609 694.204,640.573 696.158,638.618C699.474,635.303 695.165,626.898 705.595,624.812C711.464,623.638 718.655,626.924 717.829,630.23" style="fill:rgb(75,42,31);stroke:black;stroke-width:4.9px;"/>
                <g transform="matrix(1,0,0,1,3.001524,-6.928037)">
                    <path d="M738.76,583.046C752.433,562.537 725.085,520.363 724.094,518.379C719.177,508.546 718.155,509.227 717.427,509.713C716.168,510.552 685.481,567.406 710.094,579.713C716.538,582.935 734.6,584.225 736.76,584.379" style="fill:rgb(78,154,68);stroke:black;stroke-width:4.9px;"/>
                </g>
                <path d="M701.492,583.277C690.679,585.98 686.905,579.766 686.105,590.971C681.238,659.109 790.548,638.677 783.238,594.817C782.145,588.263 813.117,575.319 824.591,529.421C828.808,512.556 770.42,539.67 761.118,558.272C759.639,561.231 759.35,560.693 758.233,564.043C753.565,578.047 748.757,570.176 734.191,568.851C716.499,567.243 712.027,564.176 706.301,581.354C706.17,581.747 706.301,581.354 701.492,583.277Z" style="fill:rgb(78,154,68);"/>
                <path d="M702.396,577.686C704.989,570.633 707.719,566.929 710.877,564.93C713.285,563.406 716.035,562.715 719.473,562.663C723.218,562.605 728.04,563.374 734.634,563.974C739.362,564.404 743.143,565.454 746.252,566.329C747.462,566.669 748.549,566.98 749.539,567.18C750.173,567.308 750.706,567.502 751.186,567.327C751.547,567.195 751.705,566.77 752.002,566.258C752.553,565.309 753.062,564.07 753.587,562.494C754.823,558.785 755.099,559.359 756.738,556.082C759.611,550.335 766.591,543.708 775.252,537.76C787.593,529.284 803.256,522.015 813.51,519.903C817.279,519.126 820.46,519.045 822.756,519.554C825.397,520.141 827.241,521.467 828.385,523.212C829.552,524.992 830.143,527.407 829.343,530.609C820.981,564.054 802.727,580.722 792.886,590.034C790.958,591.858 788.871,594.199 788.21,594.95C790.833,614.344 774.027,630.191 752.209,636.726C729.653,643.482 702.532,640.112 689.31,622.474C683.532,614.765 680.242,604.313 681.22,590.622C681.675,584.25 683.587,581.667 685.509,580.394C686.668,579.627 688.023,579.18 689.667,579.053C691.845,578.885 695.144,579.744 699.997,578.6L700,578.6C700.949,578.224 701.75,577.921 702.396,577.686ZM701.492,583.277C690.679,585.98 686.905,579.766 686.105,590.971C681.238,659.109 790.548,638.677 783.238,594.817C782.145,588.263 813.117,575.319 824.591,529.421C828.808,512.556 770.42,539.67 761.118,558.272C759.639,561.231 759.35,560.693 758.233,564.043C753.565,578.047 748.757,570.176 734.191,568.851C716.499,567.243 712.027,564.176 706.301,581.354C706.17,581.747 706.301,581.354 701.492,583.277Z"/>
                <path d="M696.852,622.518C697.105,622.77 699.786,629.206 707.434,636.854C713.148,642.568 763.778,670.621 758.975,675.425C753.011,681.389 686.514,696.978 674.324,703.073" style="fill:none;stroke:rgb(210,210,210);stroke-width:4.9px;"/>
                <g transform="matrix(0.999709,0.024111,-0.024111,0.999709,17.037441,-21.892368)">
                    <path d="M675.69,707.851C674.989,707.15 664.018,691.147 663.06,676.79C662.048,661.596 674.726,639.896 678.762,637.878C679.663,637.428 678.549,636.199 688.319,629.686C689.404,628.963 702.836,620.008 703.679,624.225C704.013,625.894 703.429,625.84 697.194,632.075C690.134,639.135 689.291,637.93 682.175,645.046C677.976,649.245 666.79,674.704 681.834,697.27C686.748,704.641 689.904,707.778 681.492,710.582C675.366,712.624 675.15,706.387 672.618,705.121" style="fill:rgb(141,77,44);stroke:black;stroke-width:4.9px;"/>
                </g>
                <path d="M668.76,649.046C670.093,648.779 699.571,642.884 682.162,659.495C682.011,661.178 680.031,683.332 665.427,672.379C664.163,671.431 649.444,652.821 668.094,649.713" style="fill:rgb(78,154,68);stroke:black;stroke-width:4.9px;"/>
                <path d="M697.876,666.891C700.948,665.867 708.255,662.214 709.14,661.771C709.715,661.484 707.946,662.369 701.29,663.478C693.098,664.843 700.899,668.744 701.29,668.939C704.572,670.58 710.793,677.418 705.727,672.353C701.964,668.59 695.607,667.01 700.948,667.233C734.677,668.638 740.75,674.759 754.538,673.035" style="fill:none;stroke:rgb(175,175,175);stroke-width:6.52px;stroke-linecap:butt;stroke-miterlimit:2;"/>
                <path d="M697.876,666.891C700.948,665.867 708.255,662.214 709.14,661.771C709.715,661.484 707.946,662.369 701.29,663.478C693.098,664.843 700.899,668.744 701.29,668.939C704.572,670.58 710.793,677.418 705.727,672.353C701.964,668.59 695.607,667.01 700.948,667.233C734.677,668.638 740.75,674.759 754.538,673.035" style="fill:none;stroke:black;stroke-width:4.9px;"/>
                <path d="M761.427,661.046C760.697,660.681 757.027,658.846 751.427,663.046C742.589,669.674 748.843,673.35 750.059,675.327C749.714,677.357 743.12,694.704 762.094,688.379C782.403,681.609 775.383,656.394 761.427,661.046Z" style="fill:rgb(78,154,68);"/>
                <path d="M761.81,655.874L761.812,655.875C767.314,654.724 771.975,656.723 775.219,660.358C782.502,668.522 782.228,686.83 763.642,693.026C755.744,695.658 751.033,694.616 748.328,692.797C745.146,690.656 743.786,687.041 743.777,683.113C743.771,680.751 744.293,678.302 744.717,676.585C744.333,676.123 743.936,675.618 743.647,675.183C742.602,673.61 741.887,671.769 741.88,669.679C741.871,666.928 743.046,663.209 748.488,659.128C754.662,654.497 759.328,655.04 761.81,655.874ZM761.427,661.046C760.697,660.681 757.027,658.846 751.427,663.046C742.589,669.674 748.843,673.35 750.059,675.327C749.714,677.357 743.12,694.704 762.094,688.379C782.403,681.609 775.383,656.394 761.427,661.046Z"/>
                <path d="M749.759,589.409C746.114,587.951 748.531,587.06 748.735,587.019C750,586.766 756.222,589.089 752.831,592.481C753.059,592.253 753.286,592.026 753.514,591.798C753.183,592.129 749.959,593.463 747.711,590.091C747.276,589.438 748.279,588.327 752.49,590.433" style="fill:none;stroke:black;stroke-width:6.52px;"/>
                <g transform="matrix(1,0,0,1,-35.498654,-9.011197)">
                    <path d="M749.759,589.409C746.114,587.951 748.531,587.06 748.735,587.019C750,586.766 756.222,589.089 752.831,592.481C753.059,592.253 753.286,592.026 753.514,591.798C753.183,592.129 749.959,593.463 747.711,590.091C747.276,589.438 748.279,588.327 752.49,590.433" style="fill:none;stroke:black;stroke-width:6.52px;"/>
                </g>
            </g>
        </g>
    </g>
</svg>
