<?xml version="1.0" encoding="UTF-8" standalone="no"?>
<!DOCTYPE svg PUBLIC "-//W3C//DTD SVG 1.1//EN" "http://www.w3.org/Graphics/SVG/1.1/DTD/svg11.dtd">
<svg width="100%" height="100%" viewBox="0 0 2114 1108" version="1.1" xmlns="http://www.w3.org/2000/svg" xmlns:xlink="http://www.w3.org/1999/xlink" xml:space="preserve" xmlns:serif="http://www.serif.com/" style="fill-rule:evenodd;clip-rule:evenodd;stroke-linecap:round;stroke-linejoin:round;stroke-miterlimit:1.5;">
    <g transform="matrix(1,0,0,1,97.762938,12.821369)">
        <g>
            <g transform="matrix(1.050322,0,0,0.949235,-40.555339,19.443305)">
                <rect x="-54.467" y="-33.99" width="2011.788" height="1166.537" style="fill:rgb(126,206,72);"/>
            </g>
            <g>
                <g transform="matrix(0.608912,0,0,0.608912,-349.975153,29.804992)">
                    <path d="M738.647,811.72C754.836,803.626 769.711,778.412 813.914,763.678C805.697,862.272 882.609,747.498 903.593,768.482C906.618,771.507 876.316,813.873 921.209,798.909C942.652,791.761 960.023,765.153 993.709,753.924C988.892,780.764 967.933,813.981 998.077,798.909C1025.657,785.119 1050.768,782.999 1065.337,773.286C1052.174,825.936 1081.017,814.35 1102.169,810.119" style="fill:none;stroke:rgb(59,153,8);stroke-opacity:0.51;stroke-width:10.84px;"/>
                </g>
                <g transform="matrix(0.608912,0,0,0.608912,1242.102427,-445.282701)">
                    <path d="M738.647,811.72C754.836,803.626 769.711,778.412 813.914,763.678C805.697,862.272 882.609,747.498 903.593,768.482C906.618,771.507 876.316,813.873 921.209,798.909C942.652,791.761 960.023,765.153 993.709,753.924C988.892,780.764 967.933,813.981 998.077,798.909C1025.657,785.119 1050.768,782.999 1065.337,773.286C1052.174,825.936 1081.017,814.35 1102.169,810.119" style="fill:none;stroke:rgb(59,153,8);stroke-opacity:0.51;stroke-width:10.84px;"/>
                </g>
                <g transform="matrix(0.608912,0,0,0.608912,20.913662,386.281033)">
                    <path d="M738.647,811.72C754.836,803.626 769.711,778.412 813.914,763.678C805.697,862.272 882.609,747.498 903.593,768.482C906.618,771.507 876.316,813.873 921.209,798.909C942.652,791.761 960.023,765.153 993.709,753.924C988.892,780.764 967.933,813.981 998.077,798.909C1025.657,785.119 1050.768,782.999 1065.337,773.286C1052.174,825.936 1081.017,814.35 1102.169,810.119" style="fill:none;stroke:rgb(59,153,8);stroke-opacity:0.51;stroke-width:10.84px;"/>
                </g>
                <g transform="matrix(0.608912,0,0,0.608912,1236.390938,285.391615)">
                    <path d="M738.647,811.72C754.836,803.626 769.711,778.412 813.914,763.678C805.697,862.272 882.609,747.498 903.593,768.482C906.618,771.507 876.316,813.873 921.209,798.909C942.652,791.761 960.023,765.153 993.709,753.924C988.892,780.764 967.933,813.981 998.077,798.909C1025.657,785.119 1050.768,782.999 1065.337,773.286C1052.174,825.936 1081.017,814.35 1102.169,810.119" style="fill:none;stroke:rgb(59,153,8);stroke-opacity:0.51;stroke-width:10.84px;"/>
                </g>
                <g transform="matrix(0.608912,0,0,0.608912,1321.266162,581.654192)">
                    <path d="M738.647,811.72C754.836,803.626 769.711,778.412 813.914,763.678C805.697,862.272 882.609,747.498 903.593,768.482C906.618,771.507 876.316,813.873 921.209,798.909C942.652,791.761 960.023,765.153 993.709,753.924C988.892,780.764 967.933,813.981 998.077,798.909C1025.657,785.119 1050.768,782.999 1065.337,773.286C1052.174,825.936 1081.017,814.35 1102.169,810.119" style="fill:none;stroke:rgb(59,153,8);stroke-opacity:0.51;stroke-width:10.84px;"/>
                </g>
                <g transform="matrix(0.608912,0,0,0.608912,787.032889,-35.212655)">
                    <path d="M738.647,811.72C754.836,803.626 769.711,778.412 813.914,763.678C805.697,862.272 882.609,747.498 903.593,768.482C906.618,771.507 876.316,813.873 921.209,798.909C942.652,791.761 960.023,765.153 993.709,753.924C988.892,780.764 967.933,813.981 998.077,798.909C1025.657,785.119 1050.768,782.999 1065.337,773.286C1052.174,825.936 1081.017,814.35 1102.169,810.119" style="fill:none;stroke:rgb(59,153,8);stroke-opacity:0.51;stroke-width:10.84px;"/>
                </g>
                <path d="M951.796,711.188C951.951,709.947 956.105,676.714 964.607,702.22C972.134,724.801 978.205,681.938 986.387,686.847C992.462,690.492 1001.908,739.914 1010.728,695.815C1010.97,694.605 1016.122,682.498 1019.696,684.285C1027.28,688.076 1030.38,686.922 1032.828,708.946C1034.889,705.512 1042.882,686.91 1050.443,690.69C1057.729,694.333 1051.439,714.461 1054.287,720.156" style="fill:none;stroke:rgb(59,153,8);stroke-opacity:0.51;stroke-width:6.6px;"/>
                <g transform="matrix(1,0,0,1,-1008.894091,-545.817041)">
                    <path d="M951.796,711.188C951.951,709.947 956.105,676.714 964.607,702.22C972.134,724.801 978.205,681.938 986.387,686.847C992.462,690.492 1001.908,739.914 1010.728,695.815C1010.97,694.605 1016.122,682.498 1019.696,684.285C1027.28,688.076 1030.38,686.922 1032.828,708.946C1034.889,705.512 1042.882,686.91 1050.443,690.69C1057.729,694.333 1051.439,714.461 1054.287,720.156" style="fill:none;stroke:rgb(59,153,8);stroke-opacity:0.51;stroke-width:6.6px;"/>
                </g>
                <g transform="matrix(1,0,0,1,-365.657382,-496.43995)">
                    <path d="M951.796,711.188C951.951,709.947 956.105,676.714 964.607,702.22C972.134,724.801 978.205,681.938 986.387,686.847C992.462,690.492 1001.908,739.914 1010.728,695.815C1010.97,694.605 1016.122,682.498 1019.696,684.285C1027.28,688.076 1030.38,686.922 1032.828,708.946C1034.889,705.512 1042.882,686.91 1050.443,690.69C1057.729,694.333 1051.439,714.461 1054.287,720.156" style="fill:none;stroke:rgb(59,153,8);stroke-opacity:0.51;stroke-width:6.6px;"/>
                </g>
                <g transform="matrix(1,0,0,1,-128.113553,-294.661171)">
                    <path d="M951.796,711.188C951.951,709.947 956.105,676.714 964.607,702.22C972.134,724.801 978.205,681.938 986.387,686.847C992.462,690.492 1001.908,739.914 1010.728,695.815C1010.97,694.605 1016.122,682.498 1019.696,684.285C1027.28,688.076 1030.38,686.922 1032.828,708.946C1034.889,705.512 1042.882,686.91 1050.443,690.69C1057.729,694.333 1051.439,714.461 1054.287,720.156" style="fill:none;stroke:rgb(59,153,8);stroke-opacity:0.51;stroke-width:6.6px;"/>
                </g>
                <g transform="matrix(1,0,0,1,38.434058,277.045532)">
                    <path d="M951.796,711.188C951.951,709.947 956.105,676.714 964.607,702.22C972.134,724.801 978.205,681.938 986.387,686.847C992.462,690.492 1001.908,739.914 1010.728,695.815C1010.97,694.605 1016.122,682.498 1019.696,684.285C1027.28,688.076 1030.38,686.922 1032.828,708.946C1034.889,705.512 1042.882,686.91 1050.443,690.69C1057.729,694.333 1051.439,714.461 1054.287,720.156" style="fill:none;stroke:rgb(59,153,8);stroke-opacity:0.51;stroke-width:6.6px;"/>
                </g>
                <g transform="matrix(1,0,0,1,546.083988,-433.984653)">
                    <path d="M951.796,711.188C951.951,709.947 956.105,676.714 964.607,702.22C972.134,724.801 978.205,681.938 986.387,686.847C992.462,690.492 1001.908,739.914 1010.728,695.815C1010.97,694.605 1016.122,682.498 1019.696,684.285C1027.28,688.076 1030.38,686.922 1032.828,708.946C1034.889,705.512 1042.882,686.91 1050.443,690.69C1057.729,694.333 1051.439,714.461 1054.287,720.156" style="fill:none;stroke:rgb(59,153,8);stroke-opacity:0.51;stroke-width:6.6px;"/>
                </g>
                <g>
                    <path d="M490.587,574.107C494.406,572.834 508.094,579.875 503.398,586.918" style="fill:none;stroke:rgb(59,153,8);stroke-opacity:0.51;stroke-width:6.6px;"/>
                    <path d="M525.178,566.42C529.188,574.441 526.335,575.14 530.302,583.075" style="fill:none;stroke:rgb(59,153,8);stroke-opacity:0.51;stroke-width:6.6px;"/>
                    <path d="M549.519,589.481C549.934,587.409 553.79,568.128 555.925,563.858" style="fill:none;stroke:rgb(59,153,8);stroke-opacity:0.51;stroke-width:6.6px;"/>
                    <path d="M568.736,589.481C575.601,568.887 577.795,568.754 599.483,565.139" style="fill:none;stroke:rgb(59,153,8);stroke-opacity:0.51;stroke-width:6.6px;"/>
                </g>
                <g transform="matrix(1,0,0,1,528.468333,-532.471881)">
                    <path d="M490.587,574.107C494.406,572.834 508.094,579.875 503.398,586.918" style="fill:none;stroke:rgb(59,153,8);stroke-opacity:0.51;stroke-width:6.6px;"/>
                    <path d="M525.178,566.42C529.188,574.441 526.335,575.14 530.302,583.075" style="fill:none;stroke:rgb(59,153,8);stroke-opacity:0.51;stroke-width:6.6px;"/>
                    <path d="M549.519,589.481C549.934,587.409 553.79,568.128 555.925,563.858" style="fill:none;stroke:rgb(59,153,8);stroke-opacity:0.51;stroke-width:6.6px;"/>
                    <path d="M568.736,589.481C575.601,568.887 577.795,568.754 599.483,565.139" style="fill:none;stroke:rgb(59,153,8);stroke-opacity:0.51;stroke-width:6.6px;"/>
                </g>
                <g transform="matrix(1,0,0,1,1127.666015,387.009638)">
                    <path d="M490.587,574.107C494.406,572.834 508.094,579.875 503.398,586.918" style="fill:none;stroke:rgb(59,153,8);stroke-opacity:0.51;stroke-width:6.6px;"/>
                    <path d="M525.178,566.42C529.188,574.441 526.335,575.14 530.302,583.075" style="fill:none;stroke:rgb(59,153,8);stroke-opacity:0.51;stroke-width:6.6px;"/>
                    <path d="M549.519,589.481C549.934,587.409 553.79,568.128 555.925,563.858" style="fill:none;stroke:rgb(59,153,8);stroke-opacity:0.51;stroke-width:6.6px;"/>
                    <path d="M568.736,589.481C575.601,568.887 577.795,568.754 599.483,565.139" style="fill:none;stroke:rgb(59,153,8);stroke-opacity:0.51;stroke-width:6.6px;"/>
                </g>
                <g>
                    <path d="M1538.556,657.381L1538.556,656.1" style="fill:none;stroke:rgb(59,153,8);stroke-opacity:0.51;stroke-width:6.6px;"/>
                    <path d="M1555.211,653.537C1551.317,645.75 1556.048,644.126 1550.086,638.164" style="fill:none;stroke:rgb(59,153,8);stroke-opacity:0.51;stroke-width:6.6px;"/>
                    <path d="M1569.303,657.381C1569.303,641.356 1574.428,642.335 1574.428,626.633" style="fill:none;stroke:rgb(59,153,8);stroke-opacity:0.51;stroke-width:6.6px;"/>
                    <path d="M1584.677,654.818C1589.289,647.9 1602.201,639.292 1603.894,638.164" style="fill:none;stroke:rgb(59,153,8);stroke-opacity:0.51;stroke-width:6.6px;"/>
                    <path d="M1598.769,662.505C1599.624,661.224 1600.478,659.943 1601.332,658.662" style="fill:none;stroke:rgb(59,153,8);stroke-opacity:0.51;stroke-width:6.6px;"/>
                </g>
                <g transform="matrix(1,0,0,1,296.262577,-249.821416)">
                    <path d="M1538.556,657.381L1538.556,656.1" style="fill:none;stroke:rgb(59,153,8);stroke-opacity:0.51;stroke-width:6.6px;"/>
                    <path d="M1555.211,653.537C1551.317,645.75 1556.048,644.126 1550.086,638.164" style="fill:none;stroke:rgb(59,153,8);stroke-opacity:0.51;stroke-width:6.6px;"/>
                    <path d="M1569.303,657.381C1569.303,641.356 1574.428,642.335 1574.428,626.633" style="fill:none;stroke:rgb(59,153,8);stroke-opacity:0.51;stroke-width:6.6px;"/>
                    <path d="M1584.677,654.818C1589.289,647.9 1602.201,639.292 1603.894,638.164" style="fill:none;stroke:rgb(59,153,8);stroke-opacity:0.51;stroke-width:6.6px;"/>
                    <path d="M1598.769,662.505C1599.624,661.224 1600.478,659.943 1601.332,658.662" style="fill:none;stroke:rgb(59,153,8);stroke-opacity:0.51;stroke-width:6.6px;"/>
                </g>
                <g transform="matrix(1,0,0,1,-847.150828,96.08516)">
                    <path d="M1538.556,657.381L1538.556,656.1" style="fill:none;stroke:rgb(59,153,8);stroke-opacity:0.51;stroke-width:6.6px;"/>
                    <path d="M1555.211,653.537C1551.317,645.75 1556.048,644.126 1550.086,638.164" style="fill:none;stroke:rgb(59,153,8);stroke-opacity:0.51;stroke-width:6.6px;"/>
                    <path d="M1569.303,657.381C1569.303,641.356 1574.428,642.335 1574.428,626.633" style="fill:none;stroke:rgb(59,153,8);stroke-opacity:0.51;stroke-width:6.6px;"/>
                    <path d="M1584.677,654.818C1589.289,647.9 1602.201,639.292 1603.894,638.164" style="fill:none;stroke:rgb(59,153,8);stroke-opacity:0.51;stroke-width:6.6px;"/>
                    <path d="M1598.769,662.505C1599.624,661.224 1600.478,659.943 1601.332,658.662" style="fill:none;stroke:rgb(59,153,8);stroke-opacity:0.51;stroke-width:6.6px;"/>
                </g>
                <g transform="matrix(1,0,0,1,-1247.505662,-293.059738)">
                    <path d="M1538.556,657.381L1538.556,656.1" style="fill:none;stroke:rgb(59,153,8);stroke-opacity:0.51;stroke-width:6.6px;"/>
                    <path d="M1555.211,653.537C1551.317,645.75 1556.048,644.126 1550.086,638.164" style="fill:none;stroke:rgb(59,153,8);stroke-opacity:0.51;stroke-width:6.6px;"/>
                    <path d="M1569.303,657.381C1569.303,641.356 1574.428,642.335 1574.428,626.633" style="fill:none;stroke:rgb(59,153,8);stroke-opacity:0.51;stroke-width:6.6px;"/>
                    <path d="M1584.677,654.818C1589.289,647.9 1602.201,639.292 1603.894,638.164" style="fill:none;stroke:rgb(59,153,8);stroke-opacity:0.51;stroke-width:6.6px;"/>
                    <path d="M1598.769,662.505C1599.624,661.224 1600.478,659.943 1601.332,658.662" style="fill:none;stroke:rgb(59,153,8);stroke-opacity:0.51;stroke-width:6.6px;"/>
                </g>
                <g transform="matrix(1,0,0,1,-1362.274038,-582.649709)">
                    <path d="M1538.556,657.381L1538.556,656.1" style="fill:none;stroke:rgb(59,153,8);stroke-opacity:0.51;stroke-width:6.6px;"/>
                    <path d="M1555.211,653.537C1551.317,645.75 1556.048,644.126 1550.086,638.164" style="fill:none;stroke:rgb(59,153,8);stroke-opacity:0.51;stroke-width:6.6px;"/>
                    <path d="M1569.303,657.381C1569.303,641.356 1574.428,642.335 1574.428,626.633" style="fill:none;stroke:rgb(59,153,8);stroke-opacity:0.51;stroke-width:6.6px;"/>
                    <path d="M1584.677,654.818C1589.289,647.9 1602.201,639.292 1603.894,638.164" style="fill:none;stroke:rgb(59,153,8);stroke-opacity:0.51;stroke-width:6.6px;"/>
                    <path d="M1598.769,662.505C1599.624,661.224 1600.478,659.943 1601.332,658.662" style="fill:none;stroke:rgb(59,153,8);stroke-opacity:0.51;stroke-width:6.6px;"/>
                </g>
                <g transform="matrix(1,0,0,1,-1476.508627,88.078063)">
                    <path d="M1538.556,657.381L1538.556,656.1" style="fill:none;stroke:rgb(59,153,8);stroke-opacity:0.51;stroke-width:6.6px;"/>
                    <path d="M1555.211,653.537C1551.317,645.75 1556.048,644.126 1550.086,638.164" style="fill:none;stroke:rgb(59,153,8);stroke-opacity:0.51;stroke-width:6.6px;"/>
                    <path d="M1569.303,657.381C1569.303,641.356 1574.428,642.335 1574.428,626.633" style="fill:none;stroke:rgb(59,153,8);stroke-opacity:0.51;stroke-width:6.6px;"/>
                    <path d="M1584.677,654.818C1589.289,647.9 1602.201,639.292 1603.894,638.164" style="fill:none;stroke:rgb(59,153,8);stroke-opacity:0.51;stroke-width:6.6px;"/>
                    <path d="M1598.769,662.505C1599.624,661.224 1600.478,659.943 1601.332,658.662" style="fill:none;stroke:rgb(59,153,8);stroke-opacity:0.51;stroke-width:6.6px;"/>
                </g>
                <g transform="matrix(1,0,0,1,44.839741,52.846838)">
                    <path d="M1230.577,950.12C1238.977,945.92 1240.199,949.468 1241.728,954.055" style="fill:none;stroke:rgb(59,153,8);stroke-opacity:0.51;stroke-width:6.6px;"/>
                    <path d="M1246.32,942.904C1250.035,944.762 1249.282,945.379 1251.567,948.808" style="fill:none;stroke:rgb(59,153,8);stroke-opacity:0.51;stroke-width:6.6px;"/>
                    <path d="M1269.934,952.743C1272.339,928.692 1266.79,917.595 1267.966,919.946C1268.955,921.925 1260.913,928.227 1253.535,924.538C1251.838,923.689 1244.91,915.371 1262.062,912.512C1242.909,907.952 1256.614,888.26 1266.654,898.3C1267.499,899.145 1270.59,907.727 1270.59,906.827C1270.59,901.578 1284.547,891.631 1287.644,900.924C1289.791,907.365 1279.76,911.447 1278.713,911.873C1280.532,913.177 1288.746,916.877 1281.085,924.538C1278.763,926.86 1270.194,921.654 1272.557,919.29" style="fill:none;stroke:rgb(59,153,8);stroke-opacity:0.51;stroke-width:6.6px;"/>
                    <path d="M1283.708,950.12C1284.793,946.865 1284.516,946.94 1286.332,944.216C1286.452,944.036 1286.183,944.007 1286.988,941.592" style="fill:none;stroke:rgb(59,153,8);stroke-opacity:0.51;stroke-width:6.6px;"/>
                    <path d="M1296.171,956.679C1298.142,950.768 1305.521,951.732 1307.322,951.431" style="fill:none;stroke:rgb(59,153,8);stroke-opacity:0.51;stroke-width:6.6px;"/>
                </g>
                <g transform="matrix(1,0,0,1,-438.788898,-670.994702)">
                    <path d="M1230.577,950.12C1238.977,945.92 1240.199,949.468 1241.728,954.055" style="fill:none;stroke:rgb(59,153,8);stroke-opacity:0.51;stroke-width:6.6px;"/>
                    <path d="M1246.32,942.904C1250.035,944.762 1249.282,945.379 1251.567,948.808" style="fill:none;stroke:rgb(59,153,8);stroke-opacity:0.51;stroke-width:6.6px;"/>
                    <path d="M1269.934,952.743C1272.339,928.692 1266.79,917.595 1267.966,919.946C1268.955,921.925 1260.913,928.227 1253.535,924.538C1251.838,923.689 1244.91,915.371 1262.062,912.512C1242.909,907.952 1256.614,888.26 1266.654,898.3C1267.499,899.145 1270.59,907.727 1270.59,906.827C1270.59,901.578 1284.547,891.631 1287.644,900.924C1289.791,907.365 1279.76,911.447 1278.713,911.873C1280.532,913.177 1288.746,916.877 1281.085,924.538C1278.763,926.86 1270.194,921.654 1272.557,919.29" style="fill:none;stroke:rgb(59,153,8);stroke-opacity:0.51;stroke-width:6.6px;"/>
                    <path d="M1283.708,950.12C1284.793,946.865 1284.516,946.94 1286.332,944.216C1286.452,944.036 1286.183,944.007 1286.988,941.592" style="fill:none;stroke:rgb(59,153,8);stroke-opacity:0.51;stroke-width:6.6px;"/>
                    <path d="M1296.171,956.679C1298.142,950.768 1305.521,951.732 1307.322,951.431" style="fill:none;stroke:rgb(59,153,8);stroke-opacity:0.51;stroke-width:6.6px;"/>
                </g>
                <g transform="matrix(1,0,0,1,-1053.733923,105.693676)">
                    <path d="M1230.577,950.12C1238.977,945.92 1240.199,949.468 1241.728,954.055" style="fill:none;stroke:rgb(59,153,8);stroke-opacity:0.51;stroke-width:6.6px;"/>
                    <path d="M1246.32,942.904C1250.035,944.762 1249.282,945.379 1251.567,948.808" style="fill:none;stroke:rgb(59,153,8);stroke-opacity:0.51;stroke-width:6.6px;"/>
                    <path d="M1269.934,952.743C1272.339,928.692 1266.79,917.595 1267.966,919.946C1268.955,921.925 1260.913,928.227 1253.535,924.538C1251.838,923.689 1244.91,915.371 1262.062,912.512C1242.909,907.952 1256.614,888.26 1266.654,898.3C1267.499,899.145 1270.59,907.727 1270.59,906.827C1270.59,901.578 1284.547,891.631 1287.644,900.924C1289.791,907.365 1279.76,911.447 1278.713,911.873C1280.532,913.177 1288.746,916.877 1281.085,924.538C1278.763,926.86 1270.194,921.654 1272.557,919.29" style="fill:none;stroke:rgb(59,153,8);stroke-opacity:0.51;stroke-width:6.6px;"/>
                    <path d="M1283.708,950.12C1284.793,946.865 1284.516,946.94 1286.332,944.216C1286.452,944.036 1286.183,944.007 1286.988,941.592" style="fill:none;stroke:rgb(59,153,8);stroke-opacity:0.51;stroke-width:6.6px;"/>
                    <path d="M1296.171,956.679C1298.142,950.768 1305.521,951.732 1307.322,951.431" style="fill:none;stroke:rgb(59,153,8);stroke-opacity:0.51;stroke-width:6.6px;"/>
                </g>
                <g transform="matrix(1,0,0,1,264.767879,-892.524287)">
                    <path d="M1230.577,950.12C1238.977,945.92 1240.199,949.468 1241.728,954.055" style="fill:none;stroke:rgb(59,153,8);stroke-opacity:0.51;stroke-width:6.6px;"/>
                    <path d="M1246.32,942.904C1250.035,944.762 1249.282,945.379 1251.567,948.808" style="fill:none;stroke:rgb(59,153,8);stroke-opacity:0.51;stroke-width:6.6px;"/>
                    <path d="M1269.934,952.743C1272.339,928.692 1266.79,917.595 1267.966,919.946C1268.955,921.925 1260.913,928.227 1253.535,924.538C1251.838,923.689 1244.91,915.371 1262.062,912.512C1242.909,907.952 1256.614,888.26 1266.654,898.3C1267.499,899.145 1270.59,907.727 1270.59,906.827C1270.59,901.578 1284.547,891.631 1287.644,900.924C1289.791,907.365 1279.76,911.447 1278.713,911.873C1280.532,913.177 1288.746,916.877 1281.085,924.538C1278.763,926.86 1270.194,921.654 1272.557,919.29" style="fill:none;stroke:rgb(59,153,8);stroke-opacity:0.51;stroke-width:6.6px;"/>
                    <path d="M1283.708,950.12C1284.793,946.865 1284.516,946.94 1286.332,944.216C1286.452,944.036 1286.183,944.007 1286.988,941.592" style="fill:none;stroke:rgb(59,153,8);stroke-opacity:0.51;stroke-width:6.6px;"/>
                    <path d="M1296.171,956.679C1298.142,950.768 1305.521,951.732 1307.322,951.431" style="fill:none;stroke:rgb(59,153,8);stroke-opacity:0.51;stroke-width:6.6px;"/>
                </g>
                <g transform="matrix(1,0,0,1,12.010644,-22.019515)">
                    <path d="M1252.819,842.944C1259.866,839.421 1262.644,828.547 1285.419,812.917L1292.855,812.917C1295.172,816.973 1290.537,822.874 1292.855,826.93C1294.608,829.998 1298.159,832.545 1329.744,802.622C1329.204,812.901 1324.229,833.926 1346.903,816.921C1357.556,808.931 1353.688,820.041 1356.911,832.935C1358.813,840.54 1401.751,814.118 1412.961,816.921C1414.858,817.395 1399.833,827.892 1426.974,836.939" style="fill:none;stroke:rgb(59,153,8);stroke-opacity:0.51;stroke-width:6.6px;"/>
                </g>
                <g transform="matrix(1,0,0,1,-580.514474,248.219982)">
                    <path d="M1252.819,842.944C1259.866,839.421 1262.644,828.547 1285.419,812.917L1292.855,812.917C1295.172,816.973 1290.537,822.874 1292.855,826.93C1294.608,829.998 1298.159,832.545 1329.744,802.622C1329.204,812.901 1324.229,833.926 1346.903,816.921C1357.556,808.931 1353.688,820.041 1356.911,832.935C1358.813,840.54 1401.751,814.118 1412.961,816.921C1414.858,817.395 1399.833,827.892 1426.974,836.939" style="fill:none;stroke:rgb(59,153,8);stroke-opacity:0.51;stroke-width:6.6px;"/>
                </g>
                <g transform="matrix(1,0,0,1,-1261.117651,-510.452383)">
                    <path d="M1252.819,842.944C1259.866,839.421 1262.644,828.547 1285.419,812.917L1292.855,812.917C1295.172,816.973 1290.537,822.874 1292.855,826.93C1294.608,829.998 1298.159,832.545 1329.744,802.622C1329.204,812.901 1324.229,833.926 1346.903,816.921C1357.556,808.931 1353.688,820.041 1356.911,832.935C1358.813,840.54 1401.751,814.118 1412.961,816.921C1414.858,817.395 1399.833,827.892 1426.974,836.939" style="fill:none;stroke:rgb(59,153,8);stroke-opacity:0.51;stroke-width:6.6px;"/>
                </g>
                <g transform="matrix(1,0,0,1,-82.072736,-650.576566)">
                    <path d="M1252.819,842.944C1259.866,839.421 1262.644,828.547 1285.419,812.917L1292.855,812.917C1295.172,816.973 1290.537,822.874 1292.855,826.93C1294.608,829.998 1298.159,832.545 1329.744,802.622C1329.204,812.901 1324.229,833.926 1346.903,816.921C1357.556,808.931 1353.688,820.041 1356.911,832.935C1358.813,840.54 1401.751,814.118 1412.961,816.921C1414.858,817.395 1399.833,827.892 1426.974,836.939" style="fill:none;stroke:rgb(59,153,8);stroke-opacity:0.51;stroke-width:6.6px;"/>
                </g>
                <g transform="matrix(1,0,0,1,-801.376857,-788.031714)">
                    <path d="M1252.819,842.944C1259.866,839.421 1262.644,828.547 1285.419,812.917L1292.855,812.917C1295.172,816.973 1290.537,822.874 1292.855,826.93C1294.608,829.998 1298.159,832.545 1329.744,802.622C1329.204,812.901 1324.229,833.926 1346.903,816.921C1357.556,808.931 1353.688,820.041 1356.911,832.935C1358.813,840.54 1401.751,814.118 1412.961,816.921C1414.858,817.395 1399.833,827.892 1426.974,836.939" style="fill:none;stroke:rgb(59,153,8);stroke-opacity:0.51;stroke-width:6.6px;"/>
                </g>
            </g>
        </g>
    </g>
</svg>
