<?xml version="1.0" encoding="UTF-8" standalone="no"?>
<!DOCTYPE svg PUBLIC "-//W3C//DTD SVG 1.1//EN" "http://www.w3.org/Graphics/SVG/1.1/DTD/svg11.dtd">
<svg width="100%" height="100%" viewBox="0 0 436 594" version="1.1" xmlns="http://www.w3.org/2000/svg" xmlns:xlink="http://www.w3.org/1999/xlink" xml:space="preserve" xmlns:serif="http://www.serif.com/" style="fill-rule:evenodd;clip-rule:evenodd;stroke-linecap:round;stroke-linejoin:round;stroke-miterlimit:1.5;">
    <g transform="matrix(1,0,0,1,-0.892086,-0.559872)">
        <g transform="matrix(1,0,0,1,-983.289025,-177.458365)">
            <g transform="matrix(1,0,0,1,-460.366839,-131.594968)">
                <g transform="matrix(1,-0,-0,1,1444.54795,309.613205)">
                </g>
            </g>
            <g id="Pointy-Pink" serif:id="Pointy Pink" transform="matrix(1.929998,0,0,1.743831,753.421634,-447.817383)">
                <path d="M177.158,547.216C177.158,547.216 208.906,556.426 233.301,555.935C257.696,555.444 282.25,549.301 288.634,546.725C295.018,544.149 242.472,459.683 248.365,445.442C254.258,431.2 259.978,407.137 233.301,422.852C206.623,438.566 182.56,512.229 180.105,527.453C177.649,542.676 177.158,547.216 177.158,547.216Z" style="fill:rgb(242,48,253);stroke:black;stroke-width:3.1px;"/>
            </g>
        </g>
    </g>
</svg>
