<?xml version="1.0" encoding="UTF-8" standalone="no"?>
<!DOCTYPE svg PUBLIC "-//W3C//DTD SVG 1.1//EN" "http://www.w3.org/Graphics/SVG/1.1/DTD/svg11.dtd">
<svg width="100%" height="100%" viewBox="0 0 545 517" version="1.1" xmlns="http://www.w3.org/2000/svg" xmlns:xlink="http://www.w3.org/1999/xlink" xml:space="preserve" xmlns:serif="http://www.serif.com/" style="fill-rule:evenodd;clip-rule:evenodd;stroke-linecap:round;stroke-linejoin:round;stroke-miterlimit:1.5;">
    <g transform="matrix(1,0,0,1,-3304.66528,-220.508406)">
        <g transform="matrix(1.084474,0,0,1,0,0)">
            <g transform="matrix(0.922106,0,0,1,1908.7303,-62.025198)">
                <g transform="matrix(1,0,0,1,-16.320313,-36.278535)">
                    <g transform="matrix(1,0,0,1,13.933976,-28.469417)">
                        <path d="M1483.339,535.667C1410.052,572.309 1408.845,574.657 1331.339,698.667C1314.371,725.815 1286.79,844.765 1303.339,811.667C1303.481,811.381 1361.489,728.237 1500.339,716.667C1519.789,715.046 1544.9,695.059 1545.339,683.667C1547.113,637.519 1539.491,624.968 1512.339,570.667C1507.309,560.608 1490.508,557.345 1484.339,532.667" style="fill:rgb(183,81,155);stroke:black;stroke-width:4.1px;"/>
                    </g>
                    <path d="M1328.339,714.667C1328.808,714.197 1353.423,682.799 1367.339,671.667C1464.585,593.869 1466.944,595.85 1470.339,585.667C1476.017,568.63 1446.56,530.445 1428.339,548.667C1417.221,559.785 1339.539,637.466 1326.339,716.667" style="fill:rgb(69,23,57);stroke:black;stroke-width:4.1px;"/>
                </g>
                <g transform="matrix(-1,0,0,1,3089.764302,0)">
                    <g transform="matrix(1,0,0,1,13.933976,-28.469417)">
                        <path d="M1483.339,535.667C1410.052,572.309 1408.845,574.657 1331.339,698.667C1314.371,725.815 1286.79,844.765 1303.339,811.667C1303.481,811.381 1361.489,728.237 1500.339,716.667C1519.789,715.046 1544.9,695.059 1545.339,683.667C1547.113,637.519 1539.491,624.968 1512.339,570.667C1507.309,560.608 1490.508,557.345 1484.339,532.667" style="fill:rgb(183,81,155);stroke:black;stroke-width:4.1px;"/>
                    </g>
                    <path d="M1328.339,714.667C1328.808,714.197 1353.423,682.799 1367.339,671.667C1464.585,593.869 1466.944,595.85 1470.339,585.667C1476.017,568.63 1446.56,530.445 1428.339,548.667C1417.221,559.785 1339.539,637.466 1326.339,716.667" style="fill:rgb(69,23,57);stroke:black;stroke-width:4.1px;"/>
                </g>
                <g id="Body-Purple" transform="matrix(1.743831,0,0,1.743831,923.357026,-551.931581)">
                    <path d="M413.508,605.364C417.409,620.367 419.127,635.5 419.127,647.779C419.127,687.066 351.161,686.28 351.161,686.28C351.161,686.28 283.195,687.066 283.195,647.779C283.195,635.5 284.913,620.367 288.813,605.364C316.519,615.419 351.161,613.141 351.161,613.141C351.161,613.141 385.803,615.419 413.508,605.364Z" style="fill:rgb(50,19,29);stroke:black;stroke-width:3.04px;"/>
                </g>
                <g id="Head" transform="matrix(1.743831,0,0,1.743831,1128.88493,-503.333342)">
                    <path d="M170.953,575.899C179.532,542.903 198.667,510.535 233.301,510.535C267.934,510.535 287.07,542.903 295.648,575.899C267.942,585.954 233.301,583.676 233.301,583.676C233.301,583.676 198.659,585.954 170.953,575.899Z" style="fill:rgb(227,212,229);stroke:black;stroke-width:3.04px;"/>
                </g>
                <g transform="matrix(1,0,0,1,-0.223745,-37.391927)">
                    <path d="M1527.005,554C1520.582,547.576 1523.453,545.782 1517.005,539.333C1490.532,512.86 1472.798,497.83 1414.339,493.333C1377.72,490.517 1352.793,519.005 1349.005,523.333C1352.532,520.248 1372.413,502.852 1406.339,511.333C1407.927,511.73 1407.657,511.551 1409.005,512C1414.988,513.994 1422.406,513.311 1416.339,515.333C1388.349,524.664 1391.371,529.489 1374.339,553.333C1387.476,537.568 1421.461,533.494 1442.082,545.516C1423.485,568.592 1423.096,568.394 1413.672,596.667C1424.958,587.262 1424.254,586.507 1437.882,580.95C1418.556,660.885 1514.889,673.52 1532.339,718.667C1532.854,719.999 1532.772,721.514 1533.287,722.846C1534.582,720.216 1545.462,698.105 1555.005,693.333C1619.746,660.964 1626.689,626.247 1628.339,618C1631.89,600.245 1625.907,592.688 1623.447,585.354C1643.663,583.516 1641.79,589.84 1659.144,600.556C1652.785,559.335 1606.716,560.145 1629.672,548.667C1657.375,534.815 1705.492,548.427 1711.816,550.216C1688.816,517.921 1678.96,517.096 1661.672,511.333C1670.512,513.859 1680.69,508.071 1722.886,528.528C1713.37,502.245 1684.175,471.416 1628.339,499.333C1545.866,540.568 1548.538,561.434 1523.005,548.667" style="fill:rgb(51,30,49);stroke:black;stroke-width:4.1px;"/>
                </g>
                <g id="Nose" transform="matrix(1.743831,0,0,1.743831,1126.164777,-516.510785)">
                    <ellipse cx="234.861" cy="591.454" rx="24.8" ry="15.554" style="fill:rgb(227,212,229);stroke:black;stroke-width:3.27px;"/>
                </g>
                <g transform="matrix(1.089888,0,0,1,-134.931797,-19.679218)">
                    <path d="M1372.339,465.667C1387.552,473.273 1438.015,480.279 1440.339,480.667C1450.283,482.324 1513.538,489.331 1566.339,487.197C1602.683,485.728 1643.565,496.555 1725.339,455.667C1734.724,450.974 1747.283,409.722 1719.339,437.667C1686.981,470.024 1592.156,472.583 1596.339,405.667C1599.891,348.833 1658.472,349.517 1625.339,324.667C1620.053,320.703 1544.144,292.715 1476.339,309.667C1440.405,318.65 1400.423,324.752 1423.339,347.667C1433.028,357.356 1435.649,354.133 1443.339,365.667C1464.341,397.169 1475.309,482.991 1381.339,451.667C1372.104,448.588 1344.025,414.213 1347.339,450.667C1348.34,461.687 1376.697,467.453 1380.339,468.667" style="fill:rgb(60,9,26);stroke:black;stroke-width:3.92px;"/>
                </g>
                <g transform="matrix(0.943152,0.332361,-0.26854,0.762046,391.038684,-385.353727)">
                    <g transform="matrix(0.999837,-0.018082,0.018082,0.999837,-17.638167,26.006096)">
                        <path d="M1169.143,671.25C1169.143,671.25 1163.81,643.25 1190.477,653.25C1217.143,663.25 1300.924,691.549 1304.7,721.733C1308.477,751.917 1318.865,721.733 1318.865,721.733C1318.865,721.733 1427.35,649.25 1463.58,679.25L1428.371,921.917L1304.7,934.583L1163.143,892.583L1169.143,671.25Z" style="fill:rgb(233,231,198);"/>
                        <path d="M1165.029,671.711L1165.029,671.708C1164.81,670.243 1164.404,666.785 1164.734,662.945C1165.059,659.174 1166.1,655.115 1168.387,651.919C1171.848,647.081 1178.583,643.477 1191.694,648.393C1210.529,655.456 1257.585,671.62 1285.441,691.097C1292.998,696.381 1299.182,701.953 1303.207,707.605C1306.312,711.965 1308.194,716.456 1308.752,720.918C1309.152,724.112 1309.618,726.545 1310.16,728.344C1310.238,728.605 1310.336,728.873 1310.436,729.128C1311.008,728.37 1311.747,727.333 1312.191,726.492C1313.89,723.273 1315.094,719.775 1315.094,719.775C1315.462,718.707 1316.113,717.824 1316.939,717.272C1316.939,717.272 1370.727,681.371 1415.566,670.222C1435.811,665.188 1454.294,665.434 1465.878,675.026C1467.222,676.138 1467.903,678.131 1467.616,680.109L1432.407,922.776C1432.076,925.056 1430.542,926.783 1428.678,926.973L1305.007,939.64C1304.573,939.685 1304.137,939.643 1303.715,939.518L1162.158,897.518C1160.278,896.96 1158.98,894.848 1159.045,892.453L1165.029,671.711ZM1169.143,671.25L1163.143,892.583L1304.7,934.583L1428.371,921.917L1463.58,679.25C1427.35,649.25 1318.865,721.733 1318.865,721.733C1318.865,721.733 1308.477,751.917 1304.7,721.733C1300.924,691.549 1217.143,663.25 1190.477,653.25C1163.81,643.25 1169.143,671.25 1169.143,671.25Z"/>
                    </g>
                    <g transform="matrix(1,0,0,1,-81.500013,-22.499999)">
                        <path d="M1248.172,687.25C1248.172,687.25 1365.172,740.417 1369.172,745.083C1373.172,749.75 1365.505,738.75 1376.505,740.417C1387.505,742.083 1407.172,737.083 1407.172,742.417C1407.172,747.75 1412.505,749.083 1414.839,749.083C1417.172,749.083 1536.839,694.583 1544.505,695.25C1552.172,695.917 1554.255,707.083 1554.255,716.667C1554.255,726.25 1511.852,941 1511.852,941C1511.852,941 1508.518,952.333 1500.518,952.333C1492.518,952.333 1407.518,965.333 1405.185,970C1402.852,974.667 1399.518,975.667 1396.518,975.667C1393.518,975.667 1370.852,974.333 1370.852,974.333C1370.852,974.333 1366.852,968.333 1366.852,965.667C1366.852,963 1246.602,930 1246.602,930C1246.602,930 1235.768,925.333 1235.768,918.667C1235.768,912 1234.435,692.75 1234.435,692.75C1234.435,692.75 1242.076,685.75 1248.172,687.25Z" style="fill:rgb(63,23,23);"/>
                        <path d="M1367.726,738.391L1368.272,737.575C1369.582,736.139 1372.076,734.633 1377.003,735.38C1382.083,736.15 1389.084,735.398 1394.991,735.021C1399.549,734.73 1403.542,734.701 1405.941,735.371C1406.825,735.617 1407.569,735.958 1408.169,736.347L1409.754,737.796L1410.863,739.872L1411.173,741.139L1411.272,742.417C1411.272,742.894 1411.665,743.027 1411.956,743.206C1412.767,743.705 1413.698,743.924 1414.401,743.988C1415.216,743.668 1417.775,742.654 1420.751,741.383C1437.944,734.039 1481.874,714.414 1512.251,701.774C1523.756,696.987 1533.337,693.197 1538.847,691.42C1541.841,690.455 1543.909,690.111 1544.793,690.188C1550.276,690.665 1553.879,694.708 1555.995,700.534C1557.694,705.214 1558.355,711.161 1558.355,716.667C1558.355,726.3 1515.834,942.205 1515.834,942.205C1515.799,942.384 1515.755,942.562 1515.704,942.736C1515.704,942.736 1514.21,947.868 1510.835,951.966C1508.358,954.974 1504.942,957.408 1500.518,957.408C1494.178,957.408 1439.022,965.684 1416.028,971.347C1412.651,972.179 1409.206,973.392 1408.061,973.808C1404.827,979.413 1400.484,980.741 1396.518,980.741C1393.496,980.741 1370.657,979.402 1370.657,979.402C1369.502,979.334 1368.425,978.666 1367.689,977.563C1367.689,977.563 1365.457,974.198 1364.113,971.137C1363.855,970.551 1363.633,969.965 1363.447,969.395C1361.515,968.663 1357.506,967.181 1353.323,965.847C1322.578,956.046 1245.714,934.954 1245.714,934.954C1245.558,934.911 1245.405,934.857 1245.254,934.792C1245.254,934.792 1239.053,932.063 1235.319,927.774C1233.051,925.168 1231.668,921.991 1231.668,918.667C1231.668,912.001 1230.335,692.788 1230.335,692.788C1230.325,691.166 1230.942,689.636 1231.996,688.671C1231.996,688.671 1235.163,685.759 1239.218,683.808C1242.275,682.338 1245.792,681.491 1248.971,682.273C1249.18,682.324 1249.385,682.396 1249.585,682.487C1249.585,682.487 1324.551,716.553 1356.588,732.572C1361.359,734.957 1365.195,736.954 1367.726,738.391ZM1248.172,687.25C1242.076,685.75 1234.435,692.75 1234.435,692.75C1234.435,692.75 1235.768,912 1235.768,918.667C1235.768,925.333 1246.602,930 1246.602,930C1246.602,930 1366.852,963 1366.852,965.667C1366.852,968.333 1370.852,974.333 1370.852,974.333C1370.852,974.333 1393.518,975.667 1396.518,975.667C1399.518,975.667 1402.852,974.667 1405.185,970C1407.518,965.333 1492.518,952.333 1500.518,952.333C1508.518,952.333 1511.852,941 1511.852,941C1511.852,941 1554.255,726.25 1554.255,716.667C1554.255,707.083 1552.172,695.917 1544.505,695.25C1536.839,694.583 1417.172,749.083 1414.839,749.083C1412.505,749.083 1407.172,747.75 1407.172,742.417C1407.172,737.083 1387.505,742.083 1376.505,740.417C1365.505,738.75 1373.172,749.75 1369.172,745.083C1365.172,740.417 1248.172,687.25 1248.172,687.25Z"/>
                    </g>
                    <path d="M1416.123,824.094C1415.46,821.921 1415.431,821.804 1416.165,819.665C1417.199,816.651 1417.9,817.431 1420.045,815.519C1422.702,813.149 1427.943,808.002 1420.717,795.384C1415.187,785.725 1404.539,776.972 1399.98,776.681C1367.449,774.6 1349.844,813.7 1361.182,839.189C1362.004,841.037 1367.308,854.148 1385.248,860.238C1386.085,860.522 1386.093,860.493 1386.158,860.542C1386.526,860.821 1386.969,861.039 1387.207,861.485C1387.217,861.504 1387.465,863.005 1387.46,863.014C1387.224,863.435 1387.092,863.991 1386.746,864.273C1386.042,864.849 1385.987,864.725 1385.152,864.571C1368.292,861.458 1360.803,851.39 1359.152,849.252C1336.993,820.563 1357.341,764.738 1399.185,765.734C1400.381,765.762 1404.993,765.286 1413.744,772.286C1427.166,783.022 1439.263,802.537 1430.885,818.194C1430.465,818.98 1428.367,822.901 1423.924,826.241C1423.073,826.881 1422.245,827.31 1422.226,827.31C1418.916,827.379 1418.908,827.398 1418.644,827.26C1418.379,827.121 1416.792,826.287 1416.123,824.094Z" style="fill:rgb(255,0,20);"/>
                    <g transform="matrix(1,0,0,1,-6.954877,-2.000008)">
                        <path d="M1411.263,833.844C1411.214,833.856 1411.179,833.866 1411.161,833.871C1411.283,833.831 1411.313,833.827 1411.263,833.844ZM1411.161,833.871C1411.141,833.877 1411.142,833.876 1411.161,833.871ZM1411.263,833.844C1411.564,833.77 1412.392,833.595 1413.164,833.724C1413.466,833.774 1415.208,834.066 1416.468,836.078C1416.66,836.385 1417.768,838.154 1417.487,840.763C1417.216,843.291 1415.826,844.621 1415.585,844.852C1413.291,847.05 1408.084,846.888 1407.418,846.867C1396.759,846.534 1380.402,837.615 1378.721,826.207C1378.529,824.908 1378.175,822.6 1380.107,817.108C1387.688,795.567 1410.327,797.096 1415.988,807.745C1418.784,813.005 1417.806,820.733 1410.735,824.626C1409.314,825.408 1409.303,825.466 1407.753,825.456C1405.051,825.44 1403.424,823.423 1403.141,823.073C1401.169,820.63 1401.18,817.686 1401.182,817.176C1401.183,816.964 1401.185,816.445 1401.283,815.76C1400.014,815.682 1398.606,815.826 1397.193,816.317C1392.903,817.805 1391.106,821.974 1390.376,824.18C1392.451,827.455 1400.592,833.506 1408.08,834.109C1409.822,834.249 1411.081,833.906 1411.263,833.844Z" style="fill:rgb(255,0,20);"/>
                    </g>
                </g>
            </g>
        </g>
    </g>
</svg>
