<?xml version="1.0" encoding="UTF-8" standalone="no"?>
<!DOCTYPE svg PUBLIC "-//W3C//DTD SVG 1.1//EN" "http://www.w3.org/Graphics/SVG/1.1/DTD/svg11.dtd">
<svg width="100%" height="100%" viewBox="0 0 392 370" version="1.1" xmlns="http://www.w3.org/2000/svg" xmlns:xlink="http://www.w3.org/1999/xlink" xml:space="preserve" xmlns:serif="http://www.serif.com/" style="fill-rule:evenodd;clip-rule:evenodd;stroke-linecap:round;stroke-linejoin:round;stroke-miterlimit:1.5;">
    <g transform="matrix(1,0,0,1,-415.061661,-384.986379)">
        <g transform="matrix(1.084474,0,0,1,0,0)">
            <g transform="matrix(0.922106,0,0,1,-525.545598,82.956303)">
                <g transform="matrix(1.221365,-0.432905,0.432905,1.221365,346.190411,26.935807)">
                    <g transform="matrix(1,0,0,1,-563.524939,30.802033)">
                        <path d="M935.469,554.436C918.924,449.653 918.97,438.767 936.802,403.103C940.075,396.558 965.112,498.984 960.043,551.659C959.032,551.86 952.802,553.103 947.469,554.436C946.626,554.647 941.246,555.992 936.802,556.436" style="fill:rgb(225,219,217);stroke:black;stroke-width:4.4px;"/>
                    </g>
                    <g transform="matrix(0.992073,-0.125665,0.125665,0.992073,-623.580007,150.349888)">
                        <path d="M937.469,570.436C934.199,569.347 914.195,567.044 921.469,559.77C936.301,544.937 1010.057,558.473 956.819,570.094C956.592,575.982 957.03,581.882 956.802,587.77C956.779,588.362 956.75,588.316 956.097,595.141C954.866,596.684 939.008,608.421 940.802,585.103C940.92,583.569 942.187,567.095 930.135,569.103" style="fill:rgb(75,54,34);stroke:black;stroke-width:4.4px;"/>
                    </g>
                    <g transform="matrix(1,0,0,1,-558.666688,26.666667)">
                        <path d="M931.469,459.103C928.641,464.759 941.577,545.429 942.802,549.103" style="fill:none;stroke:black;stroke-width:4.4px;"/>
                    </g>
                </g>
                <g id="Body-Purple" transform="matrix(1.70763,0,0,1.743831,602.136335,-527.452955)">
                    <path d="M413.508,605.364C417.409,620.367 419.127,635.5 419.127,647.779C419.127,687.066 351.161,686.28 351.161,686.28C351.161,686.28 283.195,687.066 283.195,647.779C283.195,635.5 284.913,620.367 288.813,605.364C316.519,615.419 351.161,613.141 351.161,613.141C351.161,613.141 385.803,615.419 413.508,605.364Z" style="fill:rgb(36,33,38);stroke:black;stroke-width:3.07px;"/>
                </g>
                <g id="Head" transform="matrix(1.743831,0,0,1.743831,794.951946,-476.070979)">
                    <path d="M170.953,575.899C179.532,542.903 198.667,510.535 233.301,510.535C267.934,510.535 287.07,542.903 295.648,575.899C267.942,585.954 233.301,583.676 233.301,583.676C233.301,583.676 198.659,585.954 170.953,575.899Z" style="fill:rgb(241,187,140);stroke:black;stroke-width:3.04px;"/>
                </g>
                <g transform="matrix(1.487936,0.068849,-0.068849,1.487936,803.658427,-216.750282)">
                    <g transform="matrix(1,0,0,1,-558.666688,26.666667)">
                        <path d="M783.005,470C742.876,461.974 769.928,383.349 844.339,388C873.606,389.829 873.835,389.414 900.339,402.667C923.4,414.198 944.769,467.484 897.672,475.333C896.15,475.587 865.045,477.806 862.207,478.009C872.83,511.787 835.973,516.106 832.339,490.667C836.63,512.123 798.289,520.35 803.005,487.333C805.121,512.726 787.905,506.467 786.339,503.333C777.802,486.259 794.77,481.764 783.005,470Z" style="fill:rgb(235,235,235);stroke:black;stroke-width:3.83px;"/>
                    </g>
                    <g transform="matrix(1,0,0,1,-558.666688,26.666667)">
                        <path d="M848.802,451.103C850.469,456.103 861.903,467.538 860.802,466.436" style="fill:none;stroke:black;stroke-width:3.83px;"/>
                    </g>
                    <g transform="matrix(1,0,0,1,-558.666688,26.666667)">
                        <path d="M848.135,467.77C848.135,466.734 848.135,466.881 855.469,457.103C858.135,453.548 860.802,449.992 863.469,446.436" style="fill:none;stroke:black;stroke-width:3.83px;"/>
                    </g>
                    <g transform="matrix(1,0,0,1,-558.666688,26.666667)">
                        <path d="M789.469,458.436C808.463,460.811 805.48,466.879 804.135,467.103C790.3,469.409 785.569,461.003 786.135,460.436C787.472,459.1 788.031,459.051 801.469,465.77" style="fill:none;stroke:black;stroke-width:3.83px;"/>
                    </g>
                </g>
                <g transform="matrix(1.04869,0.057201,-0.057201,1.04869,-32.112152,-97.098317)">
                    <g transform="matrix(-1,0,0,1,1841.290457,-89.466666)">
                        <path d="M708.379,517.099C708.379,517.099 685.766,535.401 704.966,552.894C724.166,570.388 803.099,529.855 788.592,473.108C774.085,416.362 726.726,414.229 726.726,414.229C726.726,414.229 752.603,468.766 745.499,482.922C731.195,511.426 708.379,517.099 708.379,517.099Z" style="fill:rgb(244,244,224);"/>
                        <path d="M705.264,513.251C705.264,513.251 678.428,535.413 701.631,556.554C704.616,559.274 708.67,561.017 713.541,561.665C719.796,562.498 727.548,561.511 735.784,558.804C766.657,548.657 804.245,514.348 793.389,471.882C777.884,411.23 726.949,409.283 726.949,409.283C725.213,409.204 723.563,410.042 722.602,411.489C721.64,412.936 721.508,414.782 722.253,416.351C722.253,416.351 734.7,442.548 739.771,463.031C740.99,467.958 741.788,472.526 741.782,476.237C741.779,478.033 741.641,479.57 741.074,480.701C727.94,506.874 707.185,512.294 707.185,512.294C706.482,512.469 705.827,512.795 705.264,513.251ZM708.379,517.099C708.379,517.099 731.195,511.426 745.499,482.922C752.603,468.766 726.726,414.229 726.726,414.229C726.726,414.229 774.085,416.362 788.592,473.108C803.099,529.855 724.166,570.388 704.966,552.894C685.766,535.401 708.379,517.099 708.379,517.099Z"/>
                    </g>
                    <g transform="matrix(1,0,0,1,555.292317,-89.466666)">
                        <path d="M531.741,579.348L756.617,579.348C756.617,579.348 757.545,488.468 642.296,488.468C527.047,488.468 531.741,579.348 531.741,579.348Z" style="fill:rgb(65,60,85);"/>
                        <path d="M526.796,579.603C526.796,579.603 524.952,544.896 549.912,517.147C566.276,498.954 594.231,483.517 642.296,483.517C690.287,483.517 718.839,498.9 735.93,517.065C761.986,544.757 761.568,579.398 761.568,579.398C761.54,582.113 759.332,584.299 756.617,584.299L531.741,584.299C529.105,584.299 526.932,582.235 526.796,579.603ZM531.741,579.348L756.617,579.348C756.617,579.348 757.545,488.468 642.296,488.468C527.047,488.468 531.741,579.348 531.741,579.348Z"/>
                    </g>
                    <g transform="matrix(1,0,0,1,555.292317,-89.466666)">
                        <path d="M708.379,517.099C708.379,517.099 685.766,535.401 704.966,552.894C724.166,570.388 803.099,529.855 788.592,473.108C774.085,416.362 726.726,414.229 726.726,414.229C726.726,414.229 752.603,468.766 745.499,482.922C731.195,511.426 708.379,517.099 708.379,517.099Z" style="fill:rgb(244,244,224);"/>
                        <path d="M707.185,512.294C707.185,512.294 727.94,506.874 741.074,480.701C741.641,479.57 741.779,478.033 741.782,476.237C741.788,472.526 740.99,467.958 739.771,463.031C734.7,442.548 722.253,416.351 722.253,416.351C721.508,414.782 721.64,412.936 722.602,411.489C723.563,410.042 725.213,409.204 726.949,409.283C726.949,409.283 777.884,411.23 793.389,471.882C804.245,514.348 766.657,548.657 735.784,558.804C727.548,561.511 719.796,562.498 713.541,561.665C708.67,561.017 704.616,559.274 701.631,556.554C678.428,535.413 705.264,513.251 705.264,513.251C705.827,512.795 706.482,512.469 707.185,512.294ZM708.379,517.099C708.379,517.099 685.766,535.401 704.966,552.894C724.166,570.388 803.099,529.855 788.592,473.108C774.085,416.362 726.726,414.229 726.726,414.229C726.726,414.229 752.603,468.766 745.499,482.922C731.195,511.426 708.379,517.099 708.379,517.099Z"/>
                    </g>
                </g>
                <g transform="matrix(-1.295816,0,0,1.295816,1566.694596,-174.629339)">
                    <g transform="matrix(1,0,0,1,-558.666688,26.666667)">
                        <path d="M753.469,607.77C700.825,590.222 696.475,525.429 726.802,495.103C727.333,494.572 737.695,475.996 746.135,484.436C748.863,487.164 752.218,474.668 768.135,476.436C787.635,478.603 797.527,488.495 799.469,490.436C801.12,501.998 810.278,512.532 812.802,537.77C814.675,556.503 811.079,587.159 797.469,589.103C790.88,602.279 787.514,599.058 779.469,607.103C767.724,618.848 754.386,611.42 749.469,610.436" style="fill:rgb(75,54,34);stroke:black;stroke-width:4.4px;"/>
                    </g>
                    <g transform="matrix(1,0,0,1,-558.666688,26.666667)">
                        <path d="M755.469,562.436C745.457,572.448 732.304,530.812 760.135,537.77C769.804,540.187 773.683,559.476 756.802,565.103" style="fill:none;stroke:black;stroke-width:4.4px;"/>
                    </g>
                </g>
            </g>
        </g>
    </g>
</svg>
