<?xml version="1.0" encoding="UTF-8" standalone="no"?>
<!DOCTYPE svg PUBLIC "-//W3C//DTD SVG 1.1//EN" "http://www.w3.org/Graphics/SVG/1.1/DTD/svg11.dtd">
<svg width="100%" height="100%" viewBox="0 0 351 449" version="1.1" xmlns="http://www.w3.org/2000/svg" xmlns:xlink="http://www.w3.org/1999/xlink" xml:space="preserve" xmlns:serif="http://www.serif.com/" style="fill-rule:evenodd;clip-rule:evenodd;stroke-linecap:round;stroke-linejoin:round;stroke-miterlimit:1.5;">
    <g transform="matrix(1,0,0,1,-135.624828,-310.557475)">
        <g transform="matrix(1.295816,0,0,1.295816,-54.933722,-223.667167)">
            <g transform="matrix(1,0,0,1,-558.666688,26.666667)">
                <g transform="matrix(0.610761,0.791815,-0.791815,0.610761,747.018354,-458.681823)">
                    <path d="M874.073,621.624C870.47,618.021 862.986,616.711 873.406,606.291C880.021,599.676 884.409,608.951 887.406,602.957C894.325,589.118 912.654,600.359 899.406,610.957C897.519,612.467 897.172,613.297 903.809,626.349C905.028,626.005 917.594,622.458 918.739,631.624C920.248,643.692 914.178,640.082 901.853,641.009C901.33,641.995 896.947,650.261 892.073,650.957C881.943,652.405 885.365,646.373 889.952,637.2C889.529,635.954 887.838,630.966 881.673,622.991C877.381,622.382 877.056,623.274 874.739,620.957" style="fill:rgb(235,235,235);stroke:black;stroke-width:4.4px;"/>
                </g>
                <g transform="matrix(0.83194,0.554866,-0.554866,0.83194,388.072948,-332.890273)">
                    <path d="M874.073,621.624C870.47,618.021 862.986,616.711 873.406,606.291C880.021,599.676 884.409,608.951 887.406,602.957C894.325,589.118 912.654,600.359 899.406,610.957C897.519,612.467 897.172,613.297 903.809,626.349C905.028,626.005 917.594,622.458 918.739,631.624C920.248,643.692 914.178,640.082 901.853,641.009C901.33,641.995 896.947,650.261 892.073,650.957C881.943,652.405 885.365,646.373 889.952,637.2C889.529,635.954 887.838,630.966 881.673,622.991C877.381,622.382 877.056,623.274 874.739,620.957" style="fill:rgb(235,235,235);stroke:black;stroke-width:4.4px;"/>
                </g>
                <path d="M738.135,728.103C731.98,731.181 717.286,725.114 728.802,717.436C731.978,715.319 764.34,693.744 776.135,711.436C783.909,723.097 772.737,719.68 759.469,724.103C747.255,728.174 738.867,726.038 735.469,729.436" style="fill:rgb(235,235,235);stroke:black;stroke-width:4.4px;"/>
                <path d="M740.135,722.77C745.063,717.842 767.442,694.085 797.469,714.103C806.611,720.198 790.368,722.003 789.469,722.103C767.14,724.584 767.309,722.977 754.802,726.103C753.653,726.39 744.668,728.636 740.135,724.103" style="fill:rgb(235,235,235);stroke:black;stroke-width:4.4px;"/>
            </g>
            <g transform="matrix(-1,0,0,1,1125.855089,26.666667)">
                <g transform="matrix(0.610761,0.791815,-0.791815,0.610761,747.018354,-458.681823)">
                    <path d="M874.073,621.624C870.47,618.021 862.986,616.711 873.406,606.291C880.021,599.676 884.409,608.951 887.406,602.957C894.325,589.118 912.654,600.359 899.406,610.957C897.519,612.467 897.172,613.297 903.809,626.349C905.028,626.005 917.594,622.458 918.739,631.624C920.248,643.692 914.178,640.082 901.853,641.009C901.33,641.995 896.947,650.261 892.073,650.957C881.943,652.405 885.365,646.373 889.952,637.2C889.529,635.954 887.838,630.966 881.673,622.991C877.381,622.382 877.056,623.274 874.739,620.957" style="fill:rgb(235,235,235);stroke:black;stroke-width:4.4px;"/>
                </g>
                <g transform="matrix(0.83194,0.554866,-0.554866,0.83194,388.072948,-332.890273)">
                    <path d="M874.073,621.624C870.47,618.021 862.986,616.711 873.406,606.291C880.021,599.676 884.409,608.951 887.406,602.957C894.325,589.118 912.654,600.359 899.406,610.957C897.519,612.467 897.172,613.297 903.809,626.349C905.028,626.005 917.594,622.458 918.739,631.624C920.248,643.692 914.178,640.082 901.853,641.009C901.33,641.995 896.947,650.261 892.073,650.957C881.943,652.405 885.365,646.373 889.952,637.2C889.529,635.954 887.838,630.966 881.673,622.991C877.381,622.382 877.056,623.274 874.739,620.957" style="fill:rgb(235,235,235);stroke:black;stroke-width:4.4px;"/>
                </g>
                <path d="M738.135,728.103C731.98,731.181 717.286,725.114 728.802,717.436C731.978,715.319 764.34,693.744 776.135,711.436C783.909,723.097 772.737,719.68 759.469,724.103C747.255,728.174 738.867,726.038 735.469,729.436" style="fill:rgb(235,235,235);stroke:black;stroke-width:4.4px;"/>
                <path d="M740.135,722.77C745.063,717.842 767.442,694.085 797.469,714.103C806.611,720.198 790.368,722.003 789.469,722.103C767.14,724.584 767.309,722.977 754.802,726.103C753.653,726.39 744.668,728.636 740.135,724.103" style="fill:rgb(235,235,235);stroke:black;stroke-width:4.4px;"/>
            </g>
            <g transform="matrix(1,0,0,1,-558.666688,26.666667)">
                <path d="M830.802,589.103C828.818,585.134 825.065,580.174 831.741,566.423C830.797,564.491 825.028,552.675 833.262,539.586C823.756,522.262 828.453,520.948 830.574,513.786C826.473,501.36 822.939,500.563 830.135,489.77C830.974,488.512 827.595,464.323 836.135,463.103C849.517,461.192 845.125,484.961 844.757,486.956C845.618,487.697 858.063,494.148 846.748,513.235C852.628,523.035 852.707,524.125 846.467,533.718C854.651,550.255 853.372,550.858 849.696,565.461C868.214,593.114 835.391,599.536 832.135,589.77" style="fill:rgb(235,235,235);stroke:black;stroke-width:4.4px;"/>
            </g>
            <g transform="matrix(1,0,0,1,-558.666688,26.666667)">
                <path d="M794.073,598.291C780.343,602.867 771.158,555.167 812.073,575.624C844.964,592.069 878.227,567.128 882.739,565.624C885.126,564.828 907.201,557.47 912.073,576.957C917.272,597.754 869.261,581.164 864.739,608.291C861.19,629.589 830.199,624.543 823.406,610.957C819.804,603.752 797.038,603.255 792.073,598.291" style="fill:rgb(235,235,235);stroke:black;stroke-width:4.4px;"/>
            </g>
            <g transform="matrix(1,0,0,1,-558.666688,26.666667)">
                <path d="M888.135,517.103C881.343,523.896 877.349,504.71 886.135,509.103C888.045,510.058 883.439,486.755 901.469,495.77C904.335,497.203 901.778,504.865 910.135,510.436C911.306,511.217 910.321,512.018 922.904,522.531C923.714,522.426 928.802,521.77 933.116,522.515C935.46,527.087 936.448,527.3 933.469,531.77L928.897,532.579C926.619,550.091 912.47,544.766 915.469,535.77C916.704,532.065 898.226,527.195 891.469,520.436" style="fill:rgb(235,235,235);stroke:black;stroke-width:4.4px;"/>
            </g>
            <g transform="matrix(-1,0,0,1,1131.071671,37.634572)">
                <path d="M888.135,517.103C881.343,523.896 877.349,504.71 886.135,509.103C888.045,510.058 883.439,486.755 901.469,495.77C904.335,497.203 901.778,504.865 910.135,510.436C911.306,511.217 910.321,512.018 922.904,522.531C923.714,522.426 928.802,521.77 933.116,522.515C935.46,527.087 936.448,527.3 933.469,531.77L928.897,532.579C926.619,550.091 912.47,544.766 915.469,535.77C916.704,532.065 898.226,527.195 891.469,520.436" style="fill:rgb(235,235,235);stroke:black;stroke-width:4.4px;"/>
            </g>
            <g transform="matrix(1,0,0,1,-558.666688,26.666667)">
                <path d="M814.135,511.77C790.814,519.543 778.723,590.489 816.802,565.103C836.941,551.677 845.114,497.281 816.135,511.77C815.878,511.898 814.135,512.77 812.802,513.103" style="fill:rgb(235,235,235);stroke:black;stroke-width:4.4px;"/>
                <path d="M847.469,514.436C837.533,524.372 856.882,574.397 880.802,562.436C901.219,552.227 877.876,486.03 852.802,511.103C852.633,511.272 852.802,511.103 850.135,512.436" style="fill:rgb(235,235,235);stroke:black;stroke-width:4.4px;"/>
                <path d="M810.135,529.103C810.648,529.616 813.468,532.436 817.469,534.436C824.189,537.797 824.346,537.314 824.802,537.77" style="fill:rgb(235,235,235);stroke:black;stroke-width:4.4px;"/>
                <path d="M803.469,545.77C805.469,547.77 812.634,551.353 813.469,551.77" style="fill:rgb(235,235,235);stroke:black;stroke-width:4.4px;"/>
                <path d="M858.135,534.436C862.507,534.436 880.993,520.912 877.469,524.436" style="fill:rgb(235,235,235);stroke:black;stroke-width:4.4px;"/>
                <path d="M865.469,549.103C865.469,549.103 880.189,541.743 881.469,541.103" style="fill:rgb(235,235,235);stroke:black;stroke-width:4.4px;"/>
            </g>
            <g transform="matrix(1,0,0,1,-558.666688,26.666667)">
                <path d="M783.005,470C742.876,461.974 769.928,383.349 844.339,388C873.606,389.829 873.835,389.414 900.339,402.667C923.4,414.198 944.769,467.484 897.672,475.333C896.15,475.587 865.045,477.806 862.207,478.009C872.83,511.787 835.973,516.106 832.339,490.667C836.63,512.123 798.289,520.35 803.005,487.333C805.121,512.726 787.905,506.467 786.339,503.333C777.802,486.259 794.77,481.764 783.005,470Z" style="fill:rgb(235,235,235);stroke:black;stroke-width:4.4px;"/>
            </g>
            <g transform="matrix(1,0,0,1,-558.666688,26.666667)">
                <path d="M936.135,555.103C931.848,563.678 927.391,546.456 932.802,545.103C938.878,543.584 938.59,523.111 952.802,533.77C956.678,536.677 953.103,544.306 954.802,551.103C957.463,561.75 971.591,557.525 966.802,567.103C964.389,571.93 959.854,565.858 954.135,574.436C949.029,582.095 945.623,580.745 941.469,572.436C944.328,565.766 948.208,564.51 940.802,557.103" style="fill:rgb(235,235,235);stroke:black;stroke-width:4.4px;"/>
            </g>
            <g transform="matrix(1,0,0,1,-563.524939,30.802033)">
                <path d="M935.469,554.436C918.924,449.653 918.97,438.767 936.802,403.103C940.075,396.558 965.112,498.984 960.043,551.659C959.032,551.86 952.802,553.103 947.469,554.436C946.626,554.647 941.246,555.992 936.802,556.436" style="fill:rgb(206,190,185);stroke:black;stroke-width:4.4px;"/>
            </g>
            <g transform="matrix(0.992073,-0.125665,0.125665,0.992073,-623.580007,150.349888)">
                <path d="M937.469,570.436C934.199,569.347 914.195,567.044 921.469,559.77C936.301,544.937 1010.057,558.473 956.819,570.094C956.592,575.982 957.03,581.882 956.802,587.77C956.779,588.362 956.75,588.316 956.097,595.141C954.866,596.684 939.008,608.421 940.802,585.103C940.92,583.569 942.187,567.095 930.135,569.103" style="fill:rgb(75,54,34);stroke:black;stroke-width:4.4px;"/>
            </g>
            <g transform="matrix(1,0,0,1,-558.666688,26.666667)">
                <path d="M957.469,565.103C942.276,554.975 917.905,563.299 936.164,575.6C929.504,595.994 957.808,585.758 961.469,578.436C969.017,563.34 948.105,562.755 947.469,562.436" style="fill:rgb(235,235,235);stroke:black;stroke-width:4.4px;"/>
            </g>
            <g transform="matrix(1,0,0,1,-558.666688,26.666667)">
                <path d="M753.469,607.77C700.825,590.222 696.475,525.429 726.802,495.103C727.333,494.572 737.695,475.996 746.135,484.436C748.863,487.164 752.218,474.668 768.135,476.436C787.635,478.603 797.527,488.495 799.469,490.436C801.12,501.998 810.278,512.532 812.802,537.77C814.675,556.503 811.079,587.159 797.469,589.103C790.88,602.279 787.514,599.058 779.469,607.103C767.724,618.848 754.386,611.42 749.469,610.436" style="fill:rgb(75,54,34);stroke:black;stroke-width:4.4px;"/>
            </g>
            <g transform="matrix(1,0,0,1,-558.666688,26.666667)">
                <path d="M931.469,459.103C928.641,464.759 941.577,545.429 942.802,549.103" style="fill:none;stroke:black;stroke-width:4.4px;"/>
            </g>
            <g transform="matrix(1,0,0,1,-558.666688,26.666667)">
                <path d="M755.469,562.436C745.457,572.448 732.304,530.812 760.135,537.77C769.804,540.187 773.683,559.476 756.802,565.103" style="fill:none;stroke:black;stroke-width:4.4px;"/>
            </g>
            <g transform="matrix(1,0,0,1,-558.666688,26.666667)">
                <path d="M848.802,451.103C850.469,456.103 861.903,467.538 860.802,466.436" style="fill:none;stroke:black;stroke-width:4.4px;"/>
            </g>
            <g transform="matrix(1,0,0,1,-558.666688,26.666667)">
                <path d="M848.135,467.77C848.135,466.734 848.135,466.881 855.469,457.103C858.135,453.548 860.802,449.992 863.469,446.436" style="fill:none;stroke:black;stroke-width:4.4px;"/>
            </g>
            <g transform="matrix(1,0,0,1,-558.666688,26.666667)">
                <path d="M789.469,458.436C808.463,460.811 805.48,466.879 804.135,467.103C790.3,469.409 785.569,461.003 786.135,460.436C787.472,459.1 788.031,459.051 801.469,465.77" style="fill:none;stroke:black;stroke-width:4.4px;"/>
            </g>
        </g>
    </g>
</svg>
